<svg xmlns="http://www.w3.org/2000/svg" xmlns:xlink="http://www.w3.org/1999/xlink" width="1000" zoomAndPan="magnify" viewBox="0 0 750 749.999995" height="1000" preserveAspectRatio="xMidYMid meet" version="1.0"><defs><g/><clipPath id="3c69d12c6c"><path d="M 233 190 L 525 190 L 525 458.585938 L 233 458.585938 Z M 233 190 " clip-rule="nonzero"/></clipPath></defs><g clip-path="url(#3c69d12c6c)"><path fill="#bb1125" d="M 408.898438 450.625 C 399.519531 456.050781 389.257812 458.585938 379.113281 458.554688 C 368.96875 458.585938 358.707031 456.050781 349.332031 450.625 C 343.253906 447.113281 338.035156 442.691406 333.730469 437.589844 L 333.582031 437.414062 C 333.4375 437.234375 333.289062 437.058594 333.140625 436.882812 C 331.105469 434.40625 329.21875 431.722656 327.566406 428.832031 L 241.371094 279.5625 C 225.007812 251.191406 234.796875 214.597656 263.164062 198.203125 C 291.53125 181.835938 328.128906 191.65625 344.523438 220.023438 L 358.882812 244.910156 C 370.914062 265.730469 386.160156 298.492188 401.878906 314.03125 C 418.628906 330.546875 441.628906 340.75 466.988281 340.75 C 472.179688 340.75 477.28125 340.308594 482.265625 339.480469 L 436.734375 418.332031 C 433.136719 424.585938 429.6875 431.308594 425.085938 436.882812 C 424.9375 437.058594 424.792969 437.234375 424.644531 437.414062 L 424.496094 437.589844 C 420.191406 442.691406 414.972656 447.113281 408.898438 450.625 Z M 466.988281 306.042969 C 434.964844 306.042969 408.984375 280.0625 408.984375 248.039062 C 408.984375 215.984375 434.964844 190.035156 466.988281 190.035156 C 499.015625 190.035156 524.992188 215.984375 524.992188 248.039062 C 524.992188 280.0625 499.015625 306.042969 466.988281 306.042969 Z M 466.988281 306.042969 " fill-opacity="1" fill-rule="evenodd"/></g><g fill="#1f2020" fill-opacity="1"><g transform="translate(147.66606, 546.952025)"><g><path d="M 17.484375 0.875 L 0.34375 -41.375 L 9.890625 -41.375 L 15.390625 -27.609375 L 18.40625 -19.046875 L 21.359375 -27.3125 L 26.90625 -41.375 L 36.46875 -41.375 L 19.328125 0.875 Z M 17.484375 0.875 "/></g></g></g><g fill="#1f2020" fill-opacity="1"><g transform="translate(199.980652, 546.952025)"><g><path d="M 24.53125 0.578125 C 20.988281 0.578125 17.875 -0.0195312 15.1875 -1.21875 C 12.507812 -2.414062 10.28125 -4.023438 8.5 -6.046875 C 6.726562 -8.078125 5.398438 -10.363281 4.515625 -12.90625 C 3.628906 -15.445312 3.1875 -18.054688 3.1875 -20.734375 C 3.1875 -23.421875 3.628906 -26.035156 4.515625 -28.578125 C 5.398438 -31.128906 6.726562 -33.414062 8.5 -35.4375 C 10.28125 -37.46875 12.507812 -39.082031 15.1875 -40.28125 C 17.875 -41.476562 20.988281 -42.078125 24.53125 -42.078125 C 28.082031 -42.078125 31.195312 -41.476562 33.875 -40.28125 C 36.5625 -39.082031 38.789062 -37.46875 40.5625 -35.4375 C 42.34375 -33.414062 43.675781 -31.128906 44.5625 -28.578125 C 45.445312 -26.035156 45.890625 -23.421875 45.890625 -20.734375 C 45.890625 -18.054688 45.445312 -15.445312 44.5625 -12.90625 C 43.675781 -10.363281 42.34375 -8.078125 40.5625 -6.046875 C 38.789062 -4.023438 36.5625 -2.414062 33.875 -1.21875 C 31.195312 -0.0195312 28.082031 0.578125 24.53125 0.578125 Z M 24.53125 -7.984375 C 26.882812 -7.984375 28.910156 -8.445312 30.609375 -9.375 C 32.304688 -10.300781 33.65625 -11.523438 34.65625 -13.046875 C 35.664062 -14.578125 36.34375 -16.25 36.6875 -18.0625 C 37.039062 -19.875 37.039062 -21.6875 36.6875 -23.5 C 36.34375 -25.3125 35.664062 -26.976562 34.65625 -28.5 C 33.65625 -30.03125 32.304688 -31.253906 30.609375 -32.171875 C 28.910156 -33.097656 26.882812 -33.5625 24.53125 -33.5625 C 22.1875 -33.5625 20.164062 -33.097656 18.46875 -32.171875 C 16.769531 -31.253906 15.414062 -30.03125 14.40625 -28.5 C 13.40625 -26.976562 12.726562 -25.3125 12.375 -23.5 C 12.03125 -21.6875 12.03125 -19.875 12.375 -18.0625 C 12.726562 -16.25 13.40625 -14.578125 14.40625 -13.046875 C 15.414062 -11.523438 16.769531 -10.300781 18.46875 -9.375 C 20.164062 -8.445312 22.1875 -7.984375 24.53125 -7.984375 Z M 24.53125 -7.984375 "/></g></g></g><g fill="#1f2020" fill-opacity="1"><g transform="translate(264.447335, 546.952025)"><g><path d="M 25.234375 0 L 16.90625 -15.796875 L 12.90625 -15.796875 L 12.90625 0 L 4.625 0 L 4.625 -41.375 L 20.953125 -41.375 C 23.421875 -41.375 25.515625 -40.863281 27.234375 -39.84375 C 28.953125 -38.820312 30.289062 -37.488281 31.25 -35.84375 C 32.21875 -34.207031 32.816406 -32.4375 33.046875 -30.53125 C 33.273438 -28.625 33.128906 -26.753906 32.609375 -24.921875 C 32.085938 -23.085938 31.195312 -21.460938 29.9375 -20.046875 C 28.6875 -18.640625 27.039062 -17.648438 25 -17.078125 L 34.609375 0 Z M 12.90625 -23.84375 L 20.203125 -23.84375 C 21.316406 -23.84375 22.210938 -24.148438 22.890625 -24.765625 C 23.566406 -25.390625 24.019531 -26.160156 24.25 -27.078125 C 24.476562 -28.003906 24.476562 -28.929688 24.25 -29.859375 C 24.019531 -30.785156 23.566406 -31.554688 22.890625 -32.171875 C 22.210938 -32.796875 21.316406 -33.109375 20.203125 -33.109375 L 12.90625 -33.109375 Z M 12.90625 -23.84375 "/></g></g></g><g fill="#1f2020" fill-opacity="1"><g transform="translate(315.373117, 546.952025)"><g><path d="M 19.734375 0 L 11.453125 0 L 11.453125 -33.109375 L 1.15625 -33.109375 L 1.15625 -41.328125 L 30.03125 -41.328125 L 30.03125 -33.109375 L 19.734375 -33.109375 Z M 19.734375 0 "/></g></g></g><g fill="#1f2020" fill-opacity="1"><g transform="translate(362.479686, 546.952025)"><g><path d="M 26.046875 0 L 4.625 0 L 4.625 -41.375 L 25.34375 -41.375 L 25.34375 -33.109375 L 12.90625 -33.109375 L 12.90625 -24.828125 L 23.78125 -24.828125 L 23.78125 -16.546875 L 12.90625 -16.546875 L 12.90625 -8.28125 L 26.046875 -8.28125 Z M 26.046875 0 "/></g></g></g><g fill="#1f2020" fill-opacity="1"><g transform="translate(407.097978, 546.952025)"><g><path d="M 0.34375 0 L 13.375 -22.046875 L 2.140625 -41.4375 L 12.15625 -41.4375 L 18.40625 -29.921875 L 24.59375 -41.4375 L 34.375 -41.4375 L 23.09375 -22.046875 L 36.109375 0 L 26.328125 0 L 18.40625 -14.171875 L 10.421875 0 Z M 0.34375 0 "/></g></g></g><g fill="#1f2020" fill-opacity="1"><g transform="translate(459.065367, 546.952025)"><g><path d="M 26.046875 0 L 4.625 0 L 4.625 -41.375 L 25.34375 -41.375 L 25.34375 -33.109375 L 12.90625 -33.109375 L 12.90625 -24.828125 L 23.78125 -24.828125 L 23.78125 -16.546875 L 12.90625 -16.546875 L 12.90625 -8.28125 L 26.046875 -8.28125 Z M 26.046875 0 "/></g></g></g><g fill="#1f2020" fill-opacity="1"><g transform="translate(503.683658, 546.952025)"><g><path d="M 23.609375 -23.84375 L 39.9375 -42.015625 L 42.53125 -42.015625 L 42.53125 0 L 34.140625 0 L 34.203125 -23.09375 L 23.609375 -11.984375 L 13.015625 -23.09375 L 13.015625 0 L 4.625 0 L 4.625 -42.015625 L 7.296875 -42.015625 Z M 23.609375 -23.84375 "/></g></g></g><g fill="#1f2020" fill-opacity="1"><g transform="translate(566.356469, 546.952025)"><g><path d="M 4.625 0 L 4.625 -41.4375 L 21.015625 -41.4375 C 23.484375 -41.4375 25.601562 -40.894531 27.375 -39.8125 C 29.144531 -38.738281 30.503906 -37.253906 31.453125 -35.359375 C 32.398438 -33.472656 32.832031 -31.3125 32.75 -28.875 C 32.71875 -27.332031 32.398438 -25.804688 31.796875 -24.296875 C 31.203125 -22.796875 30.25 -21.601562 28.9375 -20.71875 C 30.289062 -19.789062 31.34375 -18.582031 32.09375 -17.09375 C 32.84375 -15.613281 33.21875 -14.0625 33.21875 -12.4375 C 33.21875 -10.125 32.664062 -8.03125 31.5625 -6.15625 C 30.46875 -4.289062 28.992188 -2.796875 27.140625 -1.671875 C 25.285156 -0.554688 23.242188 0 21.015625 0 Z M 12.96875 -33.15625 L 12.96875 -24.828125 L 20.3125 -24.828125 C 21.507812 -24.828125 22.445312 -25.238281 23.125 -26.0625 C 23.800781 -26.894531 24.140625 -27.875 24.140625 -29 C 24.140625 -30.15625 23.800781 -31.132812 23.125 -31.9375 C 22.445312 -32.75 21.507812 -33.15625 20.3125 -33.15625 Z M 12.96875 -16.546875 L 12.96875 -8.28125 L 20.3125 -8.28125 C 21.507812 -8.28125 22.503906 -8.679688 23.296875 -9.484375 C 24.085938 -10.296875 24.484375 -11.28125 24.484375 -12.4375 C 24.484375 -13.59375 24.085938 -14.566406 23.296875 -15.359375 C 22.503906 -16.148438 21.507812 -16.546875 20.3125 -16.546875 Z M 12.96875 -16.546875 "/></g></g></g></svg>