<svg xmlns="http://www.w3.org/2000/svg" xmlns:xlink="http://www.w3.org/1999/xlink" width="60" zoomAndPan="magnify" viewBox="0 0 45 44.999999" height="60" preserveAspectRatio="xMidYMid meet" version="1.0"><defs><clipPath id="ed33f928ac"><path d="M 0 1.070312 L 45 1.070312 L 45 43.820312 L 0 43.820312 Z M 0 1.070312 " clip-rule="nonzero"/></clipPath></defs><path fill="#bb1125" d="M 16.929688 30.289062 C 16.929688 30.429688 16.902344 30.566406 16.847656 30.695312 C 16.792969 30.824219 16.71875 30.9375 16.617188 31.039062 C 16.519531 31.136719 16.40625 31.214844 16.273438 31.269531 C 16.144531 31.320312 16.011719 31.347656 15.871094 31.347656 C 15.730469 31.347656 15.59375 31.320312 15.464844 31.269531 C 15.335938 31.214844 15.222656 31.136719 15.121094 31.039062 C 15.023438 30.9375 14.945312 30.824219 14.890625 30.695312 C 14.839844 30.566406 14.8125 30.429688 14.8125 30.289062 C 14.8125 30.148438 14.839844 30.015625 14.890625 29.886719 C 14.945312 29.757812 15.023438 29.640625 15.121094 29.542969 C 15.222656 29.441406 15.335938 29.367188 15.464844 29.3125 C 15.59375 29.257812 15.730469 29.230469 15.871094 29.230469 C 16.011719 29.230469 16.144531 29.257812 16.273438 29.3125 C 16.40625 29.367188 16.519531 29.441406 16.617188 29.542969 C 16.71875 29.640625 16.792969 29.757812 16.847656 29.886719 C 16.902344 30.015625 16.929688 30.148438 16.929688 30.289062 Z M 16.929688 30.289062 " fill-opacity="1" fill-rule="nonzero"/><path fill="#bb1125" d="M 20.808594 30.289062 C 20.808594 30.429688 20.78125 30.566406 20.726562 30.695312 C 20.671875 30.824219 20.597656 30.9375 20.496094 31.039062 C 20.398438 31.136719 20.285156 31.214844 20.152344 31.269531 C 20.023438 31.320312 19.890625 31.347656 19.75 31.347656 C 19.609375 31.347656 19.472656 31.320312 19.34375 31.269531 C 19.214844 31.214844 19.101562 31.136719 19 31.039062 C 18.902344 30.9375 18.824219 30.824219 18.773438 30.695312 C 18.71875 30.566406 18.691406 30.429688 18.691406 30.289062 C 18.691406 30.148438 18.71875 30.015625 18.773438 29.886719 C 18.824219 29.757812 18.902344 29.640625 19 29.542969 C 19.101562 29.441406 19.214844 29.367188 19.34375 29.3125 C 19.472656 29.257812 19.609375 29.230469 19.75 29.230469 C 19.890625 29.230469 20.023438 29.257812 20.152344 29.3125 C 20.285156 29.367188 20.398438 29.441406 20.496094 29.542969 C 20.597656 29.640625 20.671875 29.757812 20.726562 29.886719 C 20.78125 30.015625 20.808594 30.148438 20.808594 30.289062 Z M 20.808594 30.289062 " fill-opacity="1" fill-rule="nonzero"/><path fill="#bb1125" d="M 24.6875 30.289062 C 24.6875 30.429688 24.660156 30.566406 24.605469 30.695312 C 24.550781 30.824219 24.476562 30.9375 24.375 31.039062 C 24.277344 31.136719 24.164062 31.214844 24.035156 31.269531 C 23.902344 31.320312 23.769531 31.347656 23.628906 31.347656 C 23.488281 31.347656 23.351562 31.320312 23.222656 31.269531 C 23.09375 31.214844 22.980469 31.136719 22.878906 31.039062 C 22.78125 30.9375 22.703125 30.824219 22.652344 30.695312 C 22.597656 30.566406 22.570312 30.429688 22.570312 30.289062 C 22.570312 30.148438 22.597656 30.015625 22.652344 29.886719 C 22.703125 29.757812 22.78125 29.640625 22.878906 29.542969 C 22.980469 29.441406 23.09375 29.367188 23.222656 29.3125 C 23.351562 29.257812 23.488281 29.230469 23.628906 29.230469 C 23.769531 29.230469 23.902344 29.257812 24.035156 29.3125 C 24.164062 29.367188 24.277344 29.441406 24.375 29.542969 C 24.476562 29.640625 24.550781 29.757812 24.605469 29.886719 C 24.660156 30.015625 24.6875 30.148438 24.6875 30.289062 Z M 24.6875 30.289062 " fill-opacity="1" fill-rule="nonzero"/><g clip-path="url(#ed33f928ac)"><path fill="#bb1125" d="M 39.214844 1.089844 L 26.308594 1.089844 C 23.136719 1.089844 20.523438 3.699219 20.523438 6.875 L 20.523438 9.835938 C 20.3125 9.835938 20.101562 9.835938 19.820312 9.835938 L 19.679688 9.835938 C 15.445312 9.835938 11.285156 11.386719 8.109375 14.136719 C 4.9375 16.890625 2.890625 20.628906 2.257812 24.71875 C 0.917969 25.847656 0 27.75 0 29.867188 C 0 33.183594 2.117188 35.933594 4.867188 36.144531 C 5.148438 36.496094 5.570312 36.78125 6.066406 36.78125 L 7.054688 36.78125 C 7.898438 36.78125 8.535156 36.074219 8.535156 35.296875 L 8.535156 24.507812 C 8.535156 23.660156 7.828125 23.027344 7.054688 23.027344 L 6.066406 23.027344 C 5.570312 23.027344 5.148438 23.238281 4.867188 23.660156 C 4.445312 23.660156 3.949219 23.800781 3.597656 23.941406 C 5.148438 16.464844 11.921875 10.964844 19.679688 10.964844 L 19.820312 10.964844 C 20.101562 10.964844 20.382812 10.964844 20.523438 10.964844 L 20.523438 15.691406 C 20.523438 16.464844 20.171875 19.570312 19.679688 23.941406 C 19.609375 24.296875 19.820312 24.648438 20.171875 24.859375 C 20.3125 24.929688 20.453125 25 20.59375 25 C 20.808594 25 21.019531 24.929688 21.160156 24.789062 C 24.191406 22.320312 25.886719 21.472656 26.308594 21.472656 L 35.054688 21.472656 C 35.476562 22.390625 35.617188 23.027344 35.761719 23.871094 C 35.40625 23.730469 35.054688 23.660156 34.632812 23.660156 C 34.347656 23.308594 33.925781 23.027344 33.433594 23.027344 L 32.445312 23.027344 C 31.597656 23.027344 30.964844 23.730469 30.964844 24.507812 L 30.964844 35.226562 C 30.964844 36.074219 31.667969 36.707031 32.445312 36.707031 L 33.433594 36.707031 C 33.433594 36.707031 33.503906 36.707031 33.503906 36.707031 C 33.007812 38.121094 31.808594 39.460938 31.175781 39.882812 C 28.847656 41.574219 25.25 42 23.136719 42.070312 C 22.921875 41.714844 22.570312 41.503906 22.078125 41.503906 L 20.101562 41.503906 C 19.46875 41.503906 18.902344 42.070312 18.902344 42.703125 C 18.902344 43.339844 19.46875 43.902344 20.101562 43.902344 L 22.078125 43.902344 C 22.570312 43.902344 22.921875 43.621094 23.136719 43.269531 C 25.390625 43.199219 29.199219 42.703125 31.808594 40.871094 C 32.65625 40.234375 34.492188 38.261719 34.773438 36.144531 C 37.382812 35.792969 39.429688 33.183594 39.429688 29.9375 C 39.429688 27.679688 38.441406 25.707031 36.960938 24.578125 C 36.746094 23.378906 36.675781 22.53125 36.253906 21.472656 L 39.144531 21.472656 C 42.320312 21.472656 44.929688 18.863281 44.929688 15.691406 L 44.929688 6.875 C 45 3.699219 42.390625 1.089844 39.214844 1.089844 Z M 1.128906 29.867188 C 1.128906 27.328125 2.609375 25.210938 4.585938 24.789062 L 4.585938 34.945312 C 2.609375 34.59375 1.128906 32.476562 1.128906 29.867188 Z M 5.714844 24.507812 C 5.714844 24.296875 5.855469 24.152344 6.066406 24.152344 L 7.054688 24.152344 C 7.265625 24.152344 7.40625 24.296875 7.40625 24.507812 L 7.40625 35.226562 C 7.40625 35.4375 7.265625 35.582031 7.054688 35.582031 L 6.066406 35.582031 C 5.855469 35.582031 5.714844 35.4375 5.714844 35.226562 Z M 32.445312 35.652344 C 32.234375 35.652344 32.09375 35.511719 32.09375 35.296875 L 32.09375 24.507812 C 32.09375 24.296875 32.234375 24.152344 32.445312 24.152344 L 33.433594 24.152344 C 33.644531 24.152344 33.785156 24.296875 33.785156 24.507812 L 33.785156 35.226562 C 33.785156 35.4375 33.644531 35.582031 33.433594 35.582031 L 32.445312 35.582031 Z M 38.371094 29.867188 C 38.371094 32.40625 36.890625 34.523438 34.914062 34.945312 L 34.914062 24.859375 C 36.890625 25.210938 38.371094 27.328125 38.371094 29.867188 Z M 43.871094 15.691406 C 43.871094 18.230469 41.753906 20.34375 39.214844 20.34375 L 26.308594 20.34375 C 25.390625 20.34375 23.558594 21.402344 20.878906 23.589844 C 21.160156 21.261719 21.722656 16.820312 21.722656 15.691406 L 21.722656 6.875 C 21.722656 4.335938 23.839844 2.21875 26.378906 2.21875 L 39.285156 2.21875 C 41.824219 2.21875 43.941406 4.335938 43.941406 6.875 L 43.941406 15.691406 Z M 43.871094 15.691406 " fill-opacity="1" fill-rule="nonzero"/></g><path fill="#bb1125" d="M 39.214844 7.367188 L 26.027344 7.367188 C 25.746094 7.367188 25.460938 7.648438 25.460938 7.929688 C 25.460938 8.214844 25.746094 8.496094 26.027344 8.496094 L 39.285156 8.496094 C 39.570312 8.496094 39.851562 8.214844 39.851562 7.929688 C 39.851562 7.648438 39.570312 7.367188 39.214844 7.367188 Z M 39.214844 7.367188 " fill-opacity="1" fill-rule="nonzero"/><path fill="#bb1125" d="M 39.214844 11.035156 L 26.027344 11.035156 C 25.746094 11.035156 25.460938 11.316406 25.460938 11.597656 C 25.460938 11.882812 25.746094 12.164062 26.027344 12.164062 L 39.285156 12.164062 C 39.570312 12.164062 39.851562 11.882812 39.851562 11.597656 C 39.851562 11.316406 39.570312 11.035156 39.214844 11.035156 Z M 39.214844 11.035156 " fill-opacity="1" fill-rule="nonzero"/><path fill="#bb1125" d="M 39.214844 14.632812 L 25.957031 14.632812 C 25.675781 14.632812 25.390625 14.914062 25.390625 15.195312 C 25.390625 15.476562 25.675781 15.761719 25.957031 15.761719 L 39.214844 15.761719 C 39.5 15.761719 39.78125 15.476562 39.78125 15.195312 C 39.78125 14.914062 39.570312 14.632812 39.214844 14.632812 Z M 39.214844 14.632812 " fill-opacity="1" fill-rule="nonzero"/></svg>