<svg xmlns="http://www.w3.org/2000/svg" xmlns:xlink="http://www.w3.org/1999/xlink" width="60" zoomAndPan="magnify" viewBox="0 0 45 44.999999" height="60" preserveAspectRatio="xMidYMid meet" version="1.0"><defs><clipPath id="fc675c60ba"><path d="M 0 34 L 17 34 L 17 43.929688 L 0 43.929688 Z M 0 34 " clip-rule="nonzero"/></clipPath><clipPath id="933070c156"><path d="M 13 34 L 32 34 L 32 43.929688 L 13 43.929688 Z M 13 34 " clip-rule="nonzero"/></clipPath><clipPath id="9d627336d8"><path d="M 28 34 L 45 34 L 45 43.929688 L 28 43.929688 Z M 28 34 " clip-rule="nonzero"/></clipPath><clipPath id="87f18afb96"><path d="M 10 1.179688 L 35 1.179688 L 35 25 L 10 25 Z M 10 1.179688 " clip-rule="nonzero"/></clipPath></defs><g clip-path="url(#fc675c60ba)"><path fill="#bb1125" d="M 13.890625 43.808594 L 0.535156 43.808594 C 0.253906 43.808594 0.0273438 43.578125 0.0273438 43.296875 C 0.0273438 38.265625 4.117188 34.175781 9.148438 34.175781 C 11.902344 34.175781 14.480469 35.398438 16.21875 37.535156 C 16.398438 37.753906 16.367188 38.074219 16.148438 38.253906 C 15.929688 38.433594 15.605469 38.398438 15.429688 38.183594 C 13.882812 36.285156 11.59375 35.195312 9.148438 35.195312 C 4.851562 35.195312 1.328125 38.558594 1.0625 42.785156 L 13.890625 42.785156 C 14.171875 42.785156 14.402344 43.015625 14.402344 43.296875 C 14.402344 43.578125 14.171875 43.808594 13.890625 43.808594 Z M 13.890625 43.808594 " fill-opacity="1" fill-rule="nonzero"/></g><path fill="#bb1125" d="M 9.148438 35.195312 C 6.542969 35.195312 4.425781 33.078125 4.425781 30.472656 C 4.425781 27.867188 6.542969 25.75 9.148438 25.75 C 11.75 25.75 13.871094 27.867188 13.871094 30.472656 C 13.871094 33.078125 11.75 35.195312 9.148438 35.195312 Z M 9.148438 26.773438 C 7.109375 26.773438 5.445312 28.433594 5.445312 30.472656 C 5.445312 32.515625 7.109375 34.175781 9.148438 34.175781 C 11.1875 34.175781 12.851562 32.515625 12.851562 30.472656 C 12.851562 28.433594 11.1875 26.773438 9.148438 26.773438 Z M 9.148438 26.773438 " fill-opacity="1" fill-rule="nonzero"/><g clip-path="url(#933070c156)"><path fill="#bb1125" d="M 31.113281 43.808594 L 13.890625 43.808594 C 13.609375 43.808594 13.378906 43.578125 13.378906 43.296875 C 13.378906 38.265625 17.46875 34.175781 22.5 34.175781 C 27.53125 34.175781 31.625 38.265625 31.625 43.296875 C 31.625 43.578125 31.394531 43.808594 31.113281 43.808594 Z M 14.417969 42.785156 L 30.585938 42.785156 C 30.320312 38.554688 26.796875 35.195312 22.5 35.195312 C 18.207031 35.195312 14.679688 38.554688 14.417969 42.785156 Z M 14.417969 42.785156 " fill-opacity="1" fill-rule="nonzero"/></g><path fill="#bb1125" d="M 22.5 35.195312 C 19.898438 35.195312 17.777344 33.078125 17.777344 30.472656 C 17.777344 27.867188 19.894531 25.75 22.5 25.75 C 25.105469 25.75 27.222656 27.867188 27.222656 30.472656 C 27.222656 33.078125 25.105469 35.195312 22.5 35.195312 Z M 22.5 26.773438 C 20.460938 26.773438 18.800781 28.433594 18.800781 30.472656 C 18.800781 32.515625 20.460938 34.175781 22.5 34.175781 C 24.542969 34.175781 26.203125 32.515625 26.203125 30.472656 C 26.203125 28.433594 24.542969 26.773438 22.5 26.773438 Z M 22.5 26.773438 " fill-opacity="1" fill-rule="nonzero"/><g clip-path="url(#9d627336d8)"><path fill="#bb1125" d="M 44.464844 43.808594 L 31.113281 43.808594 C 30.832031 43.808594 30.601562 43.578125 30.601562 43.296875 C 30.601562 43.015625 30.832031 42.785156 31.113281 42.785156 L 43.9375 42.785156 C 43.675781 38.554688 40.148438 35.195312 35.855469 35.195312 C 33.410156 35.195312 31.121094 36.285156 29.574219 38.179688 C 29.394531 38.398438 29.074219 38.433594 28.855469 38.253906 C 28.636719 38.074219 28.605469 37.753906 28.78125 37.535156 C 30.523438 35.398438 33.101562 34.171875 35.855469 34.171875 C 40.882812 34.171875 44.976562 38.265625 44.976562 43.296875 C 44.976562 43.578125 44.746094 43.808594 44.464844 43.808594 Z M 44.464844 43.808594 " fill-opacity="1" fill-rule="nonzero"/></g><path fill="#bb1125" d="M 35.855469 35.195312 C 33.25 35.195312 31.128906 33.078125 31.128906 30.472656 C 31.128906 27.867188 33.25 25.75 35.855469 25.75 C 38.457031 25.75 40.578125 27.867188 40.578125 30.472656 C 40.578125 33.078125 38.457031 35.195312 35.855469 35.195312 Z M 35.855469 26.773438 C 33.8125 26.773438 32.152344 28.433594 32.152344 30.472656 C 32.152344 32.515625 33.8125 34.175781 35.855469 34.175781 C 37.894531 34.175781 39.554688 32.515625 39.554688 30.472656 C 39.554688 28.433594 37.894531 26.773438 35.855469 26.773438 Z M 35.855469 26.773438 " fill-opacity="1" fill-rule="nonzero"/><g clip-path="url(#87f18afb96)"><path fill="#bb1125" d="M 22.5 24.355469 C 21.464844 24.355469 20.660156 23.570312 19.953125 22.875 C 19.503906 22.4375 19.082031 22.023438 18.664062 21.847656 C 18.238281 21.667969 17.605469 21.660156 16.996094 21.65625 C 16.007812 21.648438 14.984375 21.640625 14.304688 20.960938 C 13.628906 20.285156 13.617188 19.261719 13.613281 18.273438 C 13.605469 17.660156 13.601562 17.03125 13.421875 16.601562 C 13.246094 16.1875 12.832031 15.765625 12.390625 15.316406 C 11.699219 14.605469 10.910156 13.804688 10.910156 12.765625 C 10.910156 11.730469 11.699219 10.925781 12.390625 10.21875 C 12.832031 9.769531 13.246094 9.347656 13.421875 8.929688 C 13.601562 8.503906 13.605469 7.871094 13.613281 7.261719 C 13.621094 6.273438 13.628906 5.25 14.304688 4.570312 C 14.984375 3.894531 16.007812 3.886719 16.996094 3.878906 C 17.605469 3.871094 18.238281 3.867188 18.664062 3.6875 C 19.082031 3.511719 19.503906 3.097656 19.953125 2.65625 C 20.660156 1.964844 21.464844 1.175781 22.5 1.175781 C 23.539062 1.175781 24.339844 1.964844 25.050781 2.65625 C 25.5 3.097656 25.921875 3.511719 26.335938 3.6875 C 26.765625 3.867188 27.394531 3.871094 28.007812 3.878906 C 28.996094 3.886719 30.019531 3.894531 30.695312 4.570312 C 31.375 5.25 31.382812 6.273438 31.390625 7.261719 C 31.394531 7.871094 31.402344 8.503906 31.582031 8.929688 C 31.757812 9.34375 32.171875 9.769531 32.609375 10.214844 C 33.304688 10.925781 34.089844 11.730469 34.089844 12.765625 C 34.089844 13.800781 33.304688 14.605469 32.609375 15.316406 C 32.171875 15.761719 31.753906 16.1875 31.582031 16.601562 C 31.402344 17.027344 31.394531 17.660156 31.390625 18.269531 C 31.382812 19.261719 31.375 20.285156 30.695312 20.960938 C 30.019531 21.640625 28.996094 21.648438 28.007812 21.65625 C 27.394531 21.660156 26.765625 21.664062 26.335938 21.847656 C 25.921875 22.023438 25.5 22.433594 25.050781 22.875 C 24.339844 23.570312 23.539062 24.355469 22.5 24.355469 Z M 22.5 2.199219 C 21.882812 2.199219 21.289062 2.777344 20.664062 3.386719 C 20.167969 3.875 19.65625 4.375 19.0625 4.628906 C 18.449219 4.886719 17.714844 4.894531 17.003906 4.898438 C 16.183594 4.90625 15.410156 4.910156 15.027344 5.292969 C 14.644531 5.675781 14.640625 6.449219 14.632812 7.269531 C 14.628906 7.980469 14.621094 8.714844 14.363281 9.328125 C 14.109375 9.921875 13.609375 10.433594 13.121094 10.929688 C 12.511719 11.554688 11.933594 12.148438 11.933594 12.765625 C 11.933594 13.386719 12.511719 13.976562 13.121094 14.601562 C 13.609375 15.097656 14.109375 15.613281 14.363281 16.203125 C 14.621094 16.820312 14.628906 17.554688 14.632812 18.265625 C 14.640625 19.085938 14.644531 19.859375 15.027344 20.242188 C 15.410156 20.621094 16.183594 20.628906 17.003906 20.632812 C 17.714844 20.640625 18.449219 20.644531 19.0625 20.90625 C 19.65625 21.15625 20.167969 21.660156 20.664062 22.144531 C 21.289062 22.757812 21.878906 23.335938 22.5 23.335938 C 23.121094 23.335938 23.710938 22.757812 24.335938 22.144531 C 24.832031 21.660156 25.347656 21.15625 25.9375 20.90625 C 26.554688 20.648438 27.289062 20.640625 28 20.632812 C 28.816406 20.628906 29.59375 20.621094 29.972656 20.242188 C 30.355469 19.859375 30.363281 19.085938 30.371094 18.265625 C 30.375 17.554688 30.382812 16.820312 30.640625 16.203125 C 30.894531 15.613281 31.394531 15.097656 31.882812 14.601562 C 32.492188 13.976562 33.070312 13.386719 33.070312 12.765625 C 33.070312 12.148438 32.492188 11.554688 31.882812 10.929688 C 31.394531 10.433594 30.894531 9.921875 30.640625 9.328125 C 30.382812 8.714844 30.375 7.980469 30.371094 7.269531 C 30.363281 6.449219 30.359375 5.675781 29.976562 5.292969 C 29.59375 4.910156 28.820312 4.90625 28 4.898438 C 27.289062 4.894531 26.554688 4.886719 25.941406 4.628906 C 25.347656 4.378906 24.832031 3.875 24.335938 3.386719 C 23.710938 2.777344 23.121094 2.199219 22.5 2.199219 Z M 22.5 2.199219 " fill-opacity="1" fill-rule="nonzero"/></g><path fill="#bb1125" d="M 22.5 19.464844 C 18.808594 19.464844 15.804688 16.460938 15.804688 12.765625 C 15.804688 9.074219 18.808594 6.070312 22.5 6.070312 C 26.195312 6.070312 29.199219 9.074219 29.199219 12.765625 C 29.199219 16.460938 26.195312 19.464844 22.5 19.464844 Z M 22.5 7.089844 C 19.371094 7.089844 16.824219 9.636719 16.824219 12.765625 C 16.824219 15.898438 19.371094 18.445312 22.5 18.445312 C 25.632812 18.445312 28.179688 15.898438 28.179688 12.765625 C 28.179688 9.636719 25.632812 7.089844 22.5 7.089844 Z M 22.5 7.089844 " fill-opacity="1" fill-rule="nonzero"/><path fill="#bb1125" d="M 20.820312 15.722656 C 20.6875 15.722656 20.558594 15.671875 20.457031 15.574219 L 18.929688 14.042969 C 18.730469 13.84375 18.730469 13.523438 18.929688 13.324219 C 19.128906 13.125 19.453125 13.125 19.652344 13.324219 L 20.820312 14.492188 L 25.351562 9.960938 C 25.550781 9.761719 25.871094 9.761719 26.070312 9.960938 C 26.269531 10.160156 26.269531 10.484375 26.070312 10.683594 L 21.179688 15.574219 C 21.082031 15.671875 20.949219 15.722656 20.820312 15.722656 Z M 20.820312 15.722656 " fill-opacity="1" fill-rule="nonzero"/></svg>