<svg xmlns="http://www.w3.org/2000/svg" xmlns:xlink="http://www.w3.org/1999/xlink" width="60" zoomAndPan="magnify" viewBox="0 0 45 44.999999" height="60" preserveAspectRatio="xMidYMid meet" version="1.0"><defs><clipPath id="a184becd1a"><path d="M 0.695312 0.75 L 44.195312 0.75 L 44.195312 44.25 L 0.695312 44.25 Z M 0.695312 0.75 " clip-rule="nonzero"/></clipPath></defs><g clip-path="url(#a184becd1a)"><path fill="#bb1125" d="M 44.25 18.550781 C 44.242188 18.496094 44.222656 18.445312 44.203125 18.394531 C 44.226562 18.289062 44.226562 18.179688 44.191406 18.066406 L 43.785156 16.761719 C 43.78125 16.753906 43.777344 16.742188 43.773438 16.730469 L 43.289062 15.449219 C 43.285156 15.441406 43.277344 15.429688 43.273438 15.417969 L 42.714844 14.167969 C 42.710938 14.15625 42.707031 14.144531 42.699219 14.136719 L 42.066406 12.921875 C 42.0625 12.914062 42.054688 12.902344 42.050781 12.890625 L 41.347656 11.71875 C 41.339844 11.707031 41.335938 11.699219 41.328125 11.6875 L 40.558594 10.558594 C 40.550781 10.546875 40.542969 10.539062 40.535156 10.527344 L 39.699219 9.449219 C 39.691406 9.4375 39.6875 9.429688 39.679688 9.421875 L 38.777344 8.390625 C 38.769531 8.378906 38.761719 8.371094 38.753906 8.363281 L 37.796875 7.386719 C 37.789062 7.378906 37.777344 7.367188 37.769531 7.359375 L 36.757812 6.445312 C 36.746094 6.4375 36.738281 6.429688 36.730469 6.421875 L 35.664062 5.5625 C 35.652344 5.554688 35.644531 5.550781 35.632812 5.542969 L 34.542969 4.769531 C 34.53125 4.761719 34.523438 4.753906 34.511719 4.75 L 33.378906 4.035156 C 33.367188 4.03125 33.355469 4.023438 33.347656 4.019531 L 32.171875 3.375 C 32.164062 3.367188 32.152344 3.363281 32.140625 3.359375 L 30.929688 2.785156 C 30.917969 2.777344 30.910156 2.773438 30.898438 2.769531 L 29.65625 2.265625 C 29.644531 2.257812 29.632812 2.257812 29.625 2.25 L 28.355469 1.820312 C 28.34375 1.816406 28.332031 1.8125 28.320312 1.808594 L 27.03125 1.449219 C 27.019531 1.445312 27.007812 1.445312 26.996094 1.441406 L 25.6875 1.160156 C 25.675781 1.15625 25.664062 1.15625 25.652344 1.152344 L 24.328125 0.949219 C 24.316406 0.945312 24.304688 0.945312 24.292969 0.945312 L 22.960938 0.816406 C 22.949219 0.8125 22.933594 0.8125 22.925781 0.8125 L 21.664062 0.765625 C 21.621094 0.757812 21.578125 0.753906 21.535156 0.753906 C 21.199219 0.757812 20.925781 1.035156 20.929688 1.371094 L 20.96875 4.875 L 19.789062 4.859375 C 19.773438 4.859375 19.753906 4.859375 19.738281 4.863281 L 18.109375 4.984375 C 18.089844 4.984375 18.074219 4.988281 18.058594 4.992188 L 16.445312 5.25 C 16.429688 5.253906 16.414062 5.257812 16.394531 5.261719 L 14.8125 5.660156 C 14.792969 5.664062 14.777344 5.671875 14.761719 5.675781 L 13.21875 6.207031 C 13.203125 6.214844 13.1875 6.21875 13.171875 6.226562 L 11.679688 6.886719 C 11.664062 6.894531 11.648438 6.902344 11.632812 6.910156 L 10.199219 7.699219 C 10.183594 7.707031 10.171875 7.714844 10.15625 7.726562 L 8.800781 8.632812 C 8.785156 8.640625 8.769531 8.652344 8.757812 8.660156 L 7.480469 9.679688 C 7.46875 9.691406 7.453125 9.703125 7.441406 9.714844 L 6.257812 10.839844 C 6.246094 10.847656 6.234375 10.863281 6.21875 10.875 L 5.136719 12.097656 C 5.125 12.109375 5.113281 12.125 5.101562 12.136719 L 4.125 13.449219 C 4.113281 13.460938 4.101562 13.476562 4.09375 13.492188 L 3.234375 14.878906 C 3.226562 14.894531 3.21875 14.910156 3.207031 14.921875 L 2.46875 16.378906 C 2.460938 16.394531 2.457031 16.414062 2.449219 16.429688 L 1.835938 17.941406 C 1.832031 17.957031 1.824219 17.976562 1.820312 17.992188 L 1.339844 19.550781 C 1.335938 19.566406 1.332031 19.585938 1.328125 19.601562 L 0.984375 21.199219 C 0.980469 21.214844 0.976562 21.230469 0.972656 21.25 L 0.765625 22.871094 C 0.765625 22.886719 0.761719 22.90625 0.761719 22.921875 L 0.695312 24.550781 C 0.695312 24.570312 0.695312 24.585938 0.695312 24.605469 L 0.765625 26.234375 C 0.765625 26.253906 0.769531 26.269531 0.769531 26.289062 L 0.984375 27.90625 C 0.984375 27.921875 0.988281 27.941406 0.992188 27.957031 L 1.339844 29.550781 C 1.34375 29.570312 1.347656 29.585938 1.351562 29.601562 L 1.832031 31.15625 C 1.839844 31.171875 1.84375 31.191406 1.851562 31.207031 L 2.464844 32.710938 C 2.46875 32.726562 2.476562 32.746094 2.484375 32.761719 L 3.222656 34.210938 C 3.230469 34.226562 3.238281 34.238281 3.25 34.253906 L 4.105469 35.636719 C 4.117188 35.648438 4.125 35.664062 4.136719 35.679688 L 5.109375 36.980469 C 5.117188 36.996094 5.128906 37.007812 5.140625 37.023438 L 6.222656 38.238281 C 6.234375 38.25 6.246094 38.261719 6.257812 38.273438 L 7.4375 39.390625 C 7.449219 39.402344 7.464844 39.417969 7.476562 39.425781 L 8.75 40.441406 C 8.761719 40.453125 8.777344 40.460938 8.789062 40.46875 L 10.144531 41.375 C 10.15625 41.382812 10.171875 41.394531 10.1875 41.402344 L 11.613281 42.1875 C 11.628906 42.195312 11.644531 42.203125 11.660156 42.210938 L 13.144531 42.871094 C 13.160156 42.875 13.175781 42.882812 13.191406 42.890625 L 14.730469 43.421875 C 14.746094 43.425781 14.765625 43.433594 14.78125 43.433594 L 16.355469 43.835938 C 16.371094 43.839844 16.390625 43.84375 16.40625 43.847656 L 18.011719 44.109375 C 18.027344 44.113281 18.042969 44.113281 18.0625 44.117188 L 19.683594 44.242188 C 19.699219 44.246094 19.71875 44.246094 19.734375 44.246094 L 21.363281 44.230469 C 21.378906 44.230469 21.398438 44.230469 21.414062 44.230469 L 23.03125 44.078125 C 23.050781 44.078125 23.066406 44.074219 23.082031 44.070312 L 24.683594 43.785156 C 24.703125 43.78125 24.71875 43.777344 24.734375 43.773438 L 26.304688 43.351562 C 26.320312 43.347656 26.339844 43.339844 26.355469 43.335938 L 27.882812 42.78125 C 27.902344 42.773438 27.917969 42.765625 27.933594 42.761719 L 29.410156 42.078125 C 29.425781 42.070312 29.4375 42.0625 29.453125 42.054688 L 30.808594 41.28125 L 30.824219 41.273438 C 31.132812 41.140625 31.28125 40.78125 31.148438 40.472656 C 31.027344 40.191406 30.726562 40.046875 30.4375 40.117188 C 30.378906 40.132812 30.320312 40.152344 30.265625 40.183594 L 29.511719 40.503906 L 28.679688 40.78125 L 27.824219 40.992188 L 26.957031 41.136719 L 26.082031 41.207031 L 25.203125 41.210938 L 24.324219 41.140625 L 23.457031 41.003906 L 22.601562 40.796875 L 21.765625 40.523438 L 20.957031 40.183594 L 20.175781 39.777344 L 19.429688 39.3125 L 18.722656 38.792969 L 18.058594 38.210938 L 17.445312 37.585938 L 16.882812 36.90625 L 16.375 36.191406 L 15.929688 35.433594 L 15.542969 34.644531 L 15.21875 33.816406 L 14.960938 32.960938 L 14.773438 32.09375 L 14.65625 31.210938 L 14.613281 30.320312 L 14.640625 29.433594 L 14.738281 28.546875 L 14.90625 27.671875 L 15.148438 26.816406 L 15.457031 25.980469 L 15.832031 25.171875 L 16.273438 24.398438 L 16.773438 23.664062 L 17.328125 22.96875 L 17.941406 22.324219 L 18.605469 21.730469 L 19.3125 21.191406 L 20.0625 20.710938 L 20.847656 20.292969 L 21.128906 20.171875 L 21.144531 21.949219 C 21.148438 22.128906 21.230469 22.292969 21.355469 22.402344 C 21.359375 22.40625 21.363281 22.410156 21.367188 22.414062 C 21.371094 22.414062 21.375 22.421875 21.378906 22.421875 C 21.507812 22.53125 21.679688 22.582031 21.859375 22.558594 L 43.734375 19.246094 C 44.070312 19.199219 44.300781 18.886719 44.25 18.550781 Z M 24.15625 2.160156 L 25.445312 2.363281 L 26.722656 2.636719 L 27.976562 2.984375 L 29.210938 3.402344 L 30.417969 3.894531 L 31.597656 4.453125 L 32.742188 5.082031 L 33.847656 5.773438 L 34.910156 6.527344 L 35.949219 7.359375 L 36.9375 8.253906 L 37.867188 9.203125 L 38.742188 10.207031 L 39.558594 11.261719 L 40.308594 12.359375 L 40.992188 13.5 L 41.609375 14.683594 L 42.152344 15.898438 L 42.625 17.144531 L 42.933594 18.128906 L 22.359375 21.242188 L 22.160156 2.007812 L 22.859375 2.035156 Z M 20.335938 19.179688 C 20.320312 19.1875 20.304688 19.195312 20.289062 19.199219 L 19.460938 19.640625 C 19.445312 19.648438 19.429688 19.65625 19.417969 19.667969 L 18.625 20.171875 C 18.609375 20.183594 18.597656 20.191406 18.585938 20.203125 L 17.835938 20.769531 C 17.824219 20.78125 17.8125 20.792969 17.800781 20.804688 L 17.101562 21.429688 C 17.085938 21.441406 17.078125 21.453125 17.066406 21.464844 L 16.417969 22.144531 C 16.40625 22.15625 16.398438 22.171875 16.386719 22.183594 L 15.796875 22.914062 C 15.789062 22.929688 15.777344 22.941406 15.769531 22.957031 L 15.242188 23.734375 C 15.230469 23.746094 15.222656 23.761719 15.214844 23.773438 L 14.753906 24.59375 C 14.746094 24.605469 14.738281 24.621094 14.730469 24.636719 L 14.335938 25.488281 C 14.328125 25.503906 14.320312 25.519531 14.316406 25.535156 L 13.988281 26.414062 C 13.984375 26.433594 13.976562 26.445312 13.972656 26.460938 L 13.71875 27.367188 C 13.714844 27.382812 13.710938 27.398438 13.710938 27.414062 L 13.53125 28.335938 C 13.527344 28.351562 13.523438 28.367188 13.523438 28.386719 L 13.417969 29.320312 C 13.414062 29.335938 13.414062 29.351562 13.414062 29.371094 L 13.386719 30.308594 C 13.386719 30.324219 13.386719 30.34375 13.386719 30.359375 L 13.433594 31.296875 C 13.433594 31.3125 13.433594 31.328125 13.4375 31.34375 L 13.558594 32.277344 C 13.5625 32.292969 13.566406 32.308594 13.566406 32.324219 L 13.765625 33.242188 C 13.769531 33.257812 13.773438 33.273438 13.777344 33.289062 L 14.050781 34.191406 C 14.054688 34.207031 14.058594 34.222656 14.066406 34.238281 L 14.40625 35.113281 C 14.414062 35.128906 14.421875 35.140625 14.425781 35.15625 L 14.835938 35.992188 C 14.839844 36.003906 14.847656 36.019531 14.855469 36.035156 L 15.328125 36.835938 C 15.335938 36.847656 15.347656 36.863281 15.355469 36.875 L 15.890625 37.632812 C 15.902344 37.648438 15.910156 37.660156 15.921875 37.671875 L 16.515625 38.386719 C 16.527344 38.398438 16.535156 38.410156 16.546875 38.421875 L 17.195312 39.085938 C 17.207031 39.097656 17.21875 39.109375 17.230469 39.121094 L 17.933594 39.730469 C 17.945312 39.742188 17.957031 39.75 17.96875 39.761719 L 18.71875 40.3125 C 18.730469 40.324219 18.746094 40.332031 18.757812 40.339844 L 19.546875 40.832031 C 19.558594 40.839844 19.574219 40.847656 19.589844 40.855469 L 20.414062 41.28125 C 20.429688 41.289062 20.445312 41.296875 20.460938 41.300781 L 21.316406 41.660156 C 21.328125 41.667969 21.347656 41.671875 21.363281 41.679688 L 22.242188 41.96875 C 22.257812 41.972656 22.273438 41.980469 22.289062 41.980469 L 23.191406 42.199219 C 23.207031 42.203125 23.222656 42.207031 23.238281 42.210938 L 24.15625 42.355469 C 24.171875 42.359375 24.1875 42.359375 24.203125 42.363281 L 25.042969 42.425781 L 24.441406 42.589844 L 22.890625 42.867188 L 21.324219 43.015625 L 19.75 43.023438 L 18.179688 42.902344 L 16.628906 42.648438 L 15.101562 42.261719 L 13.613281 41.746094 L 12.175781 41.109375 L 10.800781 40.347656 L 9.488281 39.476562 L 8.261719 38.492188 L 7.121094 37.410156 L 6.074219 36.234375 L 5.132812 34.972656 L 4.304688 33.636719 L 3.589844 32.234375 L 3 30.773438 L 2.53125 29.273438 L 2.195312 27.726562 L 1.988281 26.15625 L 1.921875 24.574219 L 1.984375 22.996094 L 2.1875 21.429688 L 2.519531 19.886719 L 2.984375 18.375 L 3.574219 16.910156 L 4.289062 15.503906 L 5.121094 14.160156 L 6.066406 12.890625 L 7.113281 11.710938 L 8.261719 10.621094 L 9.496094 9.636719 L 10.808594 8.761719 L 12.191406 8 L 13.636719 7.359375 L 15.128906 6.84375 L 16.664062 6.457031 L 18.222656 6.207031 L 19.796875 6.085938 L 20.976562 6.097656 L 21.105469 18.847656 Z M 20.335938 19.179688 " fill-opacity="1" fill-rule="nonzero"/></g><path fill="#bb1125" d="M 26.160156 25.429688 C 22 25.199219 18.441406 28.378906 18.207031 32.539062 C 17.976562 36.699219 21.160156 40.257812 25.316406 40.492188 C 29.476562 40.722656 33.035156 37.542969 33.269531 33.382812 C 33.503906 29.222656 30.320312 25.664062 26.160156 25.429688 Z M 32.046875 33.316406 C 31.851562 36.800781 28.871094 39.464844 25.386719 39.269531 C 21.902344 39.074219 19.234375 36.09375 19.429688 32.609375 C 19.625 29.125 22.609375 26.457031 26.09375 26.652344 C 29.578125 26.847656 32.242188 29.832031 32.046875 33.316406 Z M 32.046875 33.316406 " fill-opacity="1" fill-rule="nonzero"/><path fill="#bb1125" d="M 26.074219 29.835938 C 24.285156 29.738281 22.753906 31.105469 22.652344 32.898438 C 22.550781 34.6875 23.921875 36.21875 25.710938 36.316406 C 27.503906 36.417969 29.035156 35.050781 29.132812 33.257812 C 29.234375 31.46875 27.863281 29.9375 26.074219 29.835938 Z M 27.910156 33.191406 C 27.847656 34.304688 26.894531 35.160156 25.78125 35.097656 C 24.667969 35.035156 23.8125 34.082031 23.875 32.964844 C 23.9375 31.851562 24.890625 30.996094 26.007812 31.058594 C 27.121094 31.121094 27.972656 32.078125 27.910156 33.191406 Z M 27.910156 33.191406 " fill-opacity="1" fill-rule="nonzero"/><path fill="#bb1125" d="M 30.507812 15.242188 C 32.601562 15.242188 34.300781 13.542969 34.300781 11.445312 C 34.300781 9.347656 32.601562 7.652344 30.507812 7.652344 C 28.410156 7.652344 26.710938 9.347656 26.710938 11.445312 C 26.710938 13.542969 28.410156 15.242188 30.507812 15.242188 Z M 30.507812 8.875 C 31.925781 8.875 33.078125 10.027344 33.078125 11.445312 C 33.078125 12.867188 31.925781 14.015625 30.507812 14.015625 C 29.085938 14.015625 27.9375 12.867188 27.9375 11.445312 C 27.9375 10.027344 29.085938 8.875 30.507812 8.875 Z M 30.507812 8.875 " fill-opacity="1" fill-rule="nonzero"/><path fill="#bb1125" d="M 30.589844 13.167969 C 31.570312 13.167969 32.359375 12.375 32.359375 11.398438 C 32.359375 10.421875 31.570312 9.628906 30.589844 9.628906 C 29.613281 9.628906 28.820312 10.421875 28.820312 11.398438 C 28.820312 12.375 29.613281 13.167969 30.589844 13.167969 Z M 30.589844 10.851562 C 30.890625 10.851562 31.136719 11.097656 31.136719 11.398438 C 31.136719 11.699219 30.890625 11.941406 30.589844 11.941406 C 30.289062 11.941406 30.046875 11.699219 30.046875 11.398438 C 30.046875 11.097656 30.289062 10.851562 30.589844 10.851562 Z M 30.589844 10.851562 " fill-opacity="1" fill-rule="nonzero"/><path stroke-linecap="butt" transform="matrix(0, 0.75, -0.75, 0, 22.495967, 6.076965)" fill="none" stroke-linejoin="miter" d="M 0.00154702 1.499831 L 16.90259 1.499831 " stroke="#f3f3f3" stroke-width="3" stroke-opacity="1" stroke-miterlimit="4"/></svg>