<svg xmlns="http://www.w3.org/2000/svg" xmlns:xlink="http://www.w3.org/1999/xlink" width="60" zoomAndPan="magnify" viewBox="0 0 45 44.999999" height="60" preserveAspectRatio="xMidYMid meet" version="1.0"><defs><clipPath id="af03e15566"><path d="M 2.582031 0.488281 L 42.332031 0.488281 L 42.332031 44.738281 L 2.582031 44.738281 Z M 2.582031 0.488281 " clip-rule="nonzero"/></clipPath></defs><g clip-path="url(#af03e15566)"><path fill="#bb1125" d="M 41.726562 8.066406 C 41.707031 8.066406 39.890625 8.023438 37.28125 7.539062 C 33.078125 6.796875 27.1875 5.03125 22.984375 0.824219 C 22.722656 0.5625 22.253906 0.5625 21.992188 0.824219 C 17.785156 5.03125 11.90625 6.800781 7.707031 7.542969 C 5.101562 8.023438 3.285156 8.066406 3.269531 8.066406 C 2.886719 8.074219 2.582031 8.386719 2.582031 8.769531 C 2.582031 16.804688 4.910156 24.601562 9.3125 31.316406 C 11.164062 34.144531 13.359375 36.734375 15.835938 39.011719 L 22.011719 44.726562 C 22.144531 44.851562 22.316406 44.914062 22.488281 44.914062 C 22.660156 44.914062 22.828125 44.851562 22.964844 44.726562 L 29.15625 39.015625 C 31.636719 36.734375 33.832031 34.144531 35.683594 31.316406 C 36.929688 29.421875 38.03125 27.394531 38.960938 25.285156 C 41.25 20.046875 42.414062 14.492188 42.414062 8.769531 C 42.414062 8.386719 42.109375 8.074219 41.726562 8.066406 Z M 28.207031 37.984375 L 22.488281 43.257812 L 16.785156 37.980469 C 14.535156 35.910156 12.523438 33.570312 10.804688 31.027344 C 10.847656 30.988281 10.890625 30.945312 10.933594 30.90625 C 11.019531 30.824219 11.109375 30.742188 11.203125 30.664062 C 11.292969 30.582031 11.386719 30.5 11.484375 30.421875 C 11.574219 30.34375 11.664062 30.269531 11.757812 30.195312 C 11.855469 30.117188 11.953125 30.039062 12.050781 29.964844 C 12.144531 29.894531 12.242188 29.820312 12.335938 29.753906 C 12.4375 29.679688 12.539062 29.609375 12.640625 29.539062 C 12.738281 29.472656 12.832031 29.40625 12.929688 29.34375 C 13.035156 29.273438 13.140625 29.207031 13.246094 29.140625 C 13.347656 29.082031 13.445312 29.019531 13.542969 28.964844 C 13.652344 28.898438 13.761719 28.835938 13.871094 28.777344 C 13.972656 28.722656 14.070312 28.667969 14.171875 28.613281 C 14.28125 28.554688 14.394531 28.496094 14.511719 28.441406 C 14.609375 28.394531 14.710938 28.34375 14.8125 28.296875 C 14.929688 28.242188 15.046875 28.191406 15.164062 28.140625 C 15.265625 28.097656 15.367188 28.050781 15.472656 28.007812 C 15.589844 27.960938 15.710938 27.914062 15.832031 27.871094 C 15.9375 27.832031 16.039062 27.792969 16.140625 27.753906 C 16.265625 27.710938 16.390625 27.671875 16.515625 27.632812 C 16.617188 27.597656 16.71875 27.566406 16.824219 27.535156 C 16.949219 27.496094 17.078125 27.460938 17.207031 27.425781 C 17.3125 27.398438 17.414062 27.371094 17.519531 27.34375 C 17.648438 27.3125 17.78125 27.285156 17.914062 27.253906 C 18.019531 27.234375 18.121094 27.210938 18.222656 27.1875 C 18.359375 27.164062 18.496094 27.140625 18.636719 27.117188 C 18.734375 27.101562 18.835938 27.082031 18.9375 27.066406 C 19.082031 27.046875 19.230469 27.03125 19.378906 27.011719 C 19.46875 27.003906 19.5625 26.988281 19.65625 26.980469 C 19.820312 26.964844 19.984375 26.953125 20.148438 26.945312 C 20.230469 26.9375 20.308594 26.929688 20.386719 26.925781 C 20.628906 26.914062 20.875 26.910156 21.121094 26.910156 L 21.875 26.910156 C 21.953125 26.917969 22.035156 26.921875 22.121094 26.925781 C 22.152344 26.929688 22.1875 26.929688 22.21875 26.933594 C 22.476562 26.945312 22.746094 26.945312 23.003906 26.933594 C 23.042969 26.929688 23.078125 26.929688 23.117188 26.925781 C 23.195312 26.921875 23.277344 26.917969 23.351562 26.910156 L 23.871094 26.910156 C 24.121094 26.910156 24.367188 26.917969 24.613281 26.929688 C 24.695312 26.933594 24.773438 26.941406 24.855469 26.945312 C 25.019531 26.957031 25.1875 26.964844 25.351562 26.980469 C 25.445312 26.992188 25.542969 27.003906 25.636719 27.015625 C 25.785156 27.035156 25.933594 27.050781 26.078125 27.070312 C 26.183594 27.085938 26.28125 27.105469 26.382812 27.121094 C 26.523438 27.144531 26.660156 27.167969 26.800781 27.195312 C 26.902344 27.214844 27.007812 27.238281 27.109375 27.261719 C 27.242188 27.289062 27.378906 27.320312 27.511719 27.351562 C 27.613281 27.378906 27.71875 27.40625 27.820312 27.4375 C 27.953125 27.46875 28.082031 27.503906 28.210938 27.542969 C 28.3125 27.574219 28.417969 27.609375 28.519531 27.644531 C 28.644531 27.683594 28.773438 27.726562 28.898438 27.769531 C 29 27.804688 29.101562 27.84375 29.207031 27.882812 C 29.328125 27.929688 29.449219 27.976562 29.570312 28.027344 C 29.675781 28.070312 29.777344 28.113281 29.878906 28.160156 C 29.996094 28.210938 30.117188 28.261719 30.234375 28.320312 C 30.335938 28.367188 30.433594 28.414062 30.535156 28.464844 C 30.652344 28.523438 30.765625 28.582031 30.882812 28.640625 C 30.980469 28.695312 31.078125 28.75 31.175781 28.804688 C 31.289062 28.867188 31.402344 28.929688 31.511719 28.996094 C 31.609375 29.054688 31.707031 29.113281 31.800781 29.171875 C 31.910156 29.242188 32.019531 29.3125 32.128906 29.382812 C 32.222656 29.449219 32.316406 29.511719 32.410156 29.574219 C 32.515625 29.648438 32.621094 29.726562 32.722656 29.800781 C 32.816406 29.871094 32.90625 29.9375 32.996094 30.007812 C 33.101562 30.085938 33.203125 30.167969 33.304688 30.25 C 33.394531 30.324219 33.480469 30.394531 33.570312 30.46875 C 33.667969 30.554688 33.765625 30.644531 33.867188 30.734375 C 33.949219 30.808594 34.035156 30.882812 34.117188 30.960938 C 34.144531 30.984375 34.164062 31.007812 34.191406 31.03125 C 32.46875 33.570312 30.460938 35.910156 28.207031 37.984375 Z M 23.277344 25.503906 L 21.949219 25.503906 C 18.417969 25.167969 15.761719 22.242188 15.761719 18.6875 C 15.761719 14.910156 18.835938 11.835938 22.613281 11.835938 C 26.390625 11.835938 29.464844 14.910156 29.464844 18.6875 C 29.464844 22.242188 26.808594 25.164062 23.277344 25.503906 Z M 37.675781 24.722656 C 36.894531 26.496094 35.988281 28.210938 34.96875 29.832031 C 34.582031 29.476562 34.179688 29.136719 33.765625 28.824219 C 33.699219 28.773438 33.632812 28.726562 33.566406 28.679688 C 33.421875 28.570312 33.273438 28.460938 33.125 28.359375 C 33.042969 28.304688 32.957031 28.25 32.875 28.195312 C 32.738281 28.105469 32.601562 28.015625 32.464844 27.929688 C 32.375 27.875 32.28125 27.820312 32.1875 27.765625 C 32.054688 27.6875 31.921875 27.609375 31.785156 27.535156 C 31.6875 27.480469 31.589844 27.429688 31.492188 27.375 C 31.359375 27.308594 31.226562 27.238281 31.089844 27.171875 C 30.988281 27.121094 30.886719 27.074219 30.78125 27.023438 C 30.648438 26.964844 30.515625 26.902344 30.378906 26.84375 C 30.273438 26.796875 30.167969 26.753906 30.058594 26.710938 C 29.925781 26.65625 29.789062 26.601562 29.652344 26.550781 C 29.542969 26.507812 29.433594 26.46875 29.324219 26.429688 C 29.1875 26.382812 29.050781 26.335938 28.910156 26.292969 C 28.800781 26.257812 28.6875 26.222656 28.578125 26.1875 C 28.4375 26.144531 28.292969 26.105469 28.152344 26.070312 C 28.039062 26.039062 27.929688 26.007812 27.816406 25.980469 C 27.671875 25.945312 27.527344 25.914062 27.382812 25.882812 C 27.269531 25.859375 27.160156 25.835938 27.046875 25.8125 C 26.984375 25.800781 26.917969 25.789062 26.855469 25.777344 C 29.277344 24.335938 30.867188 21.699219 30.867188 18.6875 C 30.867188 14.136719 27.164062 10.433594 22.613281 10.433594 C 18.0625 10.433594 14.359375 14.136719 14.359375 18.6875 C 14.359375 21.679688 15.925781 24.300781 18.320312 25.746094 C 18.207031 25.765625 18.09375 25.785156 17.984375 25.804688 C 17.871094 25.828125 17.757812 25.855469 17.644531 25.878906 C 17.503906 25.910156 17.359375 25.9375 17.21875 25.972656 C 17.105469 26 16.992188 26.03125 16.878906 26.0625 C 16.742188 26.097656 16.605469 26.136719 16.46875 26.175781 C 16.351562 26.207031 16.238281 26.246094 16.125 26.28125 C 15.992188 26.324219 15.859375 26.367188 15.730469 26.414062 C 15.613281 26.453125 15.5 26.496094 15.386719 26.535156 C 15.257812 26.585938 15.128906 26.632812 15 26.6875 C 14.886719 26.730469 14.773438 26.777344 14.664062 26.828125 C 14.539062 26.882812 14.410156 26.9375 14.289062 26.992188 C 14.175781 27.046875 14.066406 27.097656 13.953125 27.152344 C 13.832031 27.210938 13.710938 27.273438 13.589844 27.335938 C 13.480469 27.394531 13.371094 27.449219 13.261719 27.507812 C 13.140625 27.574219 13.023438 27.644531 12.90625 27.710938 C 12.796875 27.773438 12.691406 27.835938 12.585938 27.902344 C 12.46875 27.972656 12.355469 28.046875 12.242188 28.121094 C 12.136719 28.1875 12.03125 28.257812 11.925781 28.328125 C 11.8125 28.402344 11.703125 28.480469 11.59375 28.5625 C 11.488281 28.636719 11.386719 28.707031 11.285156 28.785156 C 11.175781 28.867188 11.070312 28.953125 10.964844 29.035156 C 10.863281 29.113281 10.761719 29.191406 10.664062 29.273438 C 10.558594 29.363281 10.457031 29.453125 10.355469 29.539062 C 10.257812 29.625 10.160156 29.710938 10.0625 29.796875 C 10.050781 29.808594 10.039062 29.820312 10.023438 29.832031 C 6.1875 23.695312 4.109375 16.675781 3.988281 9.433594 C 4.777344 9.382812 6.183594 9.25 7.957031 8.921875 C 12.1875 8.171875 18.070312 6.417969 22.488281 2.296875 C 26.902344 6.414062 32.796875 8.171875 37.03125 8.921875 C 38.808594 9.25 40.214844 9.382812 41.003906 9.433594 C 40.917969 14.726562 39.800781 19.867188 37.675781 24.722656 Z M 37.675781 24.722656 " fill-opacity="1" fill-rule="nonzero"/></g></svg>