<svg xmlns="http://www.w3.org/2000/svg" xmlns:xlink="http://www.w3.org/1999/xlink" width="40" zoomAndPan="magnify" viewBox="0 0 30 40.499999" height="54" preserveAspectRatio="xMidYMid meet" version="1.0"><defs><clipPath id="d96190802c"><path d="M 0.207031 34.578125 L 29.675781 34.578125 L 29.675781 39.765625 L 0.207031 39.765625 Z M 0.207031 34.578125 " clip-rule="nonzero"/></clipPath><clipPath id="a6a6cdf6b1"><path d="M 2.917969 34.578125 L 26.96875 34.578125 C 27.6875 34.578125 28.375 34.863281 28.882812 35.371094 C 29.390625 35.878906 29.675781 36.570312 29.675781 37.289062 C 29.675781 38.003906 29.390625 38.695312 28.882812 39.203125 C 28.375 39.710938 27.6875 39.996094 26.96875 39.996094 L 2.917969 39.996094 C 2.199219 39.996094 1.507812 39.710938 1 39.203125 C 0.492188 38.695312 0.207031 38.003906 0.207031 37.289062 C 0.207031 36.570312 0.492188 35.878906 1 35.371094 C 1.507812 34.863281 2.199219 34.578125 2.917969 34.578125 Z M 2.917969 34.578125 " clip-rule="nonzero"/></clipPath><clipPath id="b2da725fc1"><path d="M 0.207031 0 L 29.675781 0 L 29.675781 5.1875 L 0.207031 5.1875 Z M 0.207031 0 " clip-rule="nonzero"/></clipPath><clipPath id="26e8df9990"><path d="M 2.917969 0 L 26.96875 0 C 27.6875 0 28.375 0.285156 28.882812 0.792969 C 29.390625 1.300781 29.675781 1.992188 29.675781 2.707031 C 29.675781 3.425781 29.390625 4.117188 28.882812 4.625 C 28.375 5.132812 27.6875 5.417969 26.96875 5.417969 L 2.917969 5.417969 C 2.199219 5.417969 1.507812 5.132812 1 4.625 C 0.492188 4.117188 0.207031 3.425781 0.207031 2.707031 C 0.207031 1.992188 0.492188 1.300781 1 0.792969 C 1.507812 0.285156 2.199219 0 2.917969 0 Z M 2.917969 0 " clip-rule="nonzero"/></clipPath><clipPath id="e7b45fe0ee"><path d="M 0.183594 29 L 12 29 L 12 39 L 0.183594 39 Z M 0.183594 29 " clip-rule="nonzero"/></clipPath><clipPath id="76a8d784b7"><path d="M 0.183594 26 L 29.816406 26 L 29.816406 39 L 0.183594 39 Z M 0.183594 26 " clip-rule="nonzero"/></clipPath><clipPath id="b52f772948"><path d="M 0.183594 22 L 29.816406 22 L 29.816406 36 L 0.183594 36 Z M 0.183594 22 " clip-rule="nonzero"/></clipPath><clipPath id="7fa7fcb533"><path d="M 0.183594 19 L 29.816406 19 L 29.816406 32 L 0.183594 32 Z M 0.183594 19 " clip-rule="nonzero"/></clipPath><clipPath id="8d4cc31cde"><path d="M 0.183594 16 L 29.816406 16 L 29.816406 29 L 0.183594 29 Z M 0.183594 16 " clip-rule="nonzero"/></clipPath><clipPath id="d9bb50c4c1"><path d="M 0.183594 12 L 29.816406 12 L 29.816406 26 L 0.183594 26 Z M 0.183594 12 " clip-rule="nonzero"/></clipPath><clipPath id="6c22038079"><path d="M 11 1 L 29.816406 1 L 29.816406 13 L 11 13 Z M 11 1 " clip-rule="nonzero"/></clipPath><clipPath id="2358e0df2f"><path d="M 0.183594 2 L 29.816406 2 L 29.816406 16 L 0.183594 16 Z M 0.183594 2 " clip-rule="nonzero"/></clipPath><clipPath id="601e4b7a17"><path d="M 0.183594 6 L 29.816406 6 L 29.816406 19 L 0.183594 19 Z M 0.183594 6 " clip-rule="nonzero"/></clipPath><clipPath id="fff2e9000e"><path d="M 0.183594 9 L 29.816406 9 L 29.816406 22 L 0.183594 22 Z M 0.183594 9 " clip-rule="nonzero"/></clipPath></defs><g clip-path="url(#d96190802c)"><g clip-path="url(#a6a6cdf6b1)"><path stroke-linecap="butt" transform="matrix(0.740854, 0, 0, 0.740854, 0.207353, 34.578398)" fill="none" stroke-linejoin="miter" d="M 3.658774 -0.000367972 L 36.122383 -0.000367972 C 37.092547 -0.000367972 38.020531 0.384534 38.705973 1.069977 C 39.391416 1.755419 39.776318 2.688675 39.776318 3.65884 C 39.776318 4.623732 39.391416 5.556988 38.705973 6.242431 C 38.020531 6.927873 37.092547 7.312776 36.122383 7.312776 L 3.658774 7.312776 C 2.688609 7.312776 1.755353 6.927873 1.069911 6.242431 C 0.384468 5.556988 -0.000434015 4.623732 -0.000434015 3.65884 C -0.000434015 2.688675 0.384468 1.755419 1.069911 1.069977 C 1.755353 0.384534 2.688609 -0.000367972 3.658774 -0.000367972 Z M 3.658774 -0.000367972 " stroke="#bb1125" stroke-width="2.6" stroke-opacity="1" stroke-miterlimit="4"/></g></g><g clip-path="url(#b2da725fc1)"><g clip-path="url(#26e8df9990)"><path stroke-linecap="butt" transform="matrix(0.740854, 0, 0, 0.740854, 0.207353, -0.000000000000002632)" fill="none" stroke-linejoin="miter" d="M 3.658774 0.000000000000003553 L 36.122383 0.000000000000003553 C 37.092547 0.000000000000003553 38.020531 0.384902 38.705973 1.070345 C 39.391416 1.755787 39.776318 2.689043 39.776318 3.653935 C 39.776318 4.6241 39.391416 5.557356 38.705973 6.242799 C 38.020531 6.928241 37.092547 7.313144 36.122383 7.313144 L 3.658774 7.313144 C 2.688609 7.313144 1.755353 6.928241 1.069911 6.242799 C 0.384468 5.557356 -0.000434015 4.6241 -0.000434015 3.653935 C -0.000434015 2.689043 0.384468 1.755787 1.069911 1.070345 C 1.755353 0.384902 2.688609 0.000000000000003553 3.658774 0.000000000000003553 Z M 3.658774 0.000000000000003553 " stroke="#bb1125" stroke-width="2.6" stroke-opacity="1" stroke-miterlimit="4"/></g></g><g clip-path="url(#e7b45fe0ee)"><path stroke-linecap="round" transform="matrix(0.730693, 0.122276, -0.122276, 0.730693, 3.00809, 33.529207)" fill="none" stroke-linejoin="miter" d="M 0.500567 0.501738 L 6.460791 0.498686 " stroke="#bb1125" stroke-width="1" stroke-opacity="1" stroke-miterlimit="4"/></g><g clip-path="url(#76a8d784b7)"><path stroke-linecap="round" transform="matrix(0.730693, 0.122276, -0.122276, 0.730693, 2.913026, 30.034943)" fill="none" stroke-linejoin="miter" d="M 0.501908 0.49901 L 32.25164 0.499802 " stroke="#bb1125" stroke-width="1" stroke-opacity="1" stroke-miterlimit="4"/></g><g clip-path="url(#b52f772948)"><path stroke-linecap="round" transform="matrix(0.730693, 0.122276, -0.122276, 0.730693, 2.889074, 26.701823)" fill="none" stroke-linejoin="miter" d="M 0.497635 0.501214 L 32.252568 0.501136 " stroke="#bb1125" stroke-width="1" stroke-opacity="1" stroke-miterlimit="4"/></g><g clip-path="url(#7fa7fcb533)"><path stroke-linecap="round" transform="matrix(0.730693, 0.122276, -0.122276, 0.730693, 2.950212, 23.332046)" fill="none" stroke-linejoin="miter" d="M 0.499155 0.499158 L 32.254088 0.499079 " stroke="#bb1125" stroke-width="1" stroke-opacity="1" stroke-miterlimit="4"/></g><g clip-path="url(#8d4cc31cde)"><path stroke-linecap="round" transform="matrix(0.730693, 0.122276, -0.122276, 0.730693, 3.13039, 20.004699)" fill="none" stroke-linejoin="miter" d="M 0.498329 0.498232 L 32.253261 0.498154 " stroke="#bb1125" stroke-width="1" stroke-opacity="1" stroke-miterlimit="4"/></g><g clip-path="url(#d9bb50c4c1)"><path stroke-linecap="round" transform="matrix(0.730693, 0.122276, -0.122276, 0.730693, 3.191528, 16.634922)" fill="none" stroke-linejoin="miter" d="M 0.500719 0.501376 L 32.255651 0.501298 " stroke="#bb1125" stroke-width="1" stroke-opacity="1" stroke-miterlimit="4"/></g><g clip-path="url(#6c22038079)"><path stroke-linecap="round" transform="matrix(0.726386, 0.145696, -0.145696, 0.726386, 15.018297, 5.064505)" fill="none" stroke-linejoin="miter" d="M 0.49979 0.499291 L 16.466539 0.50182 " stroke="#bb1125" stroke-width="1" stroke-opacity="1" stroke-miterlimit="4"/></g><g clip-path="url(#2358e0df2f)"><path stroke-linecap="round" transform="matrix(-0.730693, -0.122276, 0.122276, -0.730693, 27.378985, 11.37218)" fill="none" stroke-linejoin="miter" d="M 0.500827 0.500385 L 32.25576 0.500307 " stroke="#bb1125" stroke-width="1" stroke-opacity="1" stroke-miterlimit="4"/></g><g clip-path="url(#601e4b7a17)"><path stroke-linecap="round" transform="matrix(-0.730693, -0.122276, 0.122276, -0.730693, 27.317846, 14.741957)" fill="none" stroke-linejoin="miter" d="M 0.502346 0.498329 L 32.252079 0.49912 " stroke="#bb1125" stroke-width="1" stroke-opacity="1" stroke-miterlimit="4"/></g><g clip-path="url(#fff2e9000e)"><path stroke-linecap="round" transform="matrix(-0.730693, -0.122276, 0.122276, -0.730693, 27.137667, 18.069304)" fill="none" stroke-linejoin="miter" d="M 0.501518 0.497403 L 32.25125 0.498194 " stroke="#bb1125" stroke-width="1" stroke-opacity="1" stroke-miterlimit="4"/></g></svg>