<svg xmlns="http://www.w3.org/2000/svg" xmlns:xlink="http://www.w3.org/1999/xlink" width="60" zoomAndPan="magnify" viewBox="0 0 45 44.999999" height="60" preserveAspectRatio="xMidYMid meet" version="1.0"><defs><clipPath id="48a55715f6"><path d="M 0.5625 0 L 44.8125 0 L 44.8125 45 L 0.5625 45 Z M 0.5625 0 " clip-rule="nonzero"/></clipPath></defs><g clip-path="url(#48a55715f6)"><path fill="#bb1125" d="M 40.949219 3.511719 C 41.058594 3.621094 41.058594 3.808594 40.949219 3.917969 L 38.667969 6.199219 C 38.613281 6.253906 38.535156 6.289062 38.46875 6.289062 C 38.40625 6.289062 38.328125 6.253906 38.273438 6.199219 C 38.164062 6.089844 38.164062 5.902344 38.273438 5.792969 L 40.554688 3.511719 C 40.664062 3.402344 40.851562 3.402344 40.960938 3.511719 Z M 4.46875 3.511719 C 4.359375 3.402344 4.171875 3.402344 4.0625 3.511719 C 3.953125 3.621094 3.953125 3.808594 4.0625 3.917969 L 6.34375 6.199219 C 6.398438 6.253906 6.476562 6.289062 6.539062 6.289062 C 6.605469 6.289062 6.683594 6.253906 6.738281 6.199219 C 6.847656 6.089844 6.847656 5.902344 6.738281 5.792969 L 4.457031 3.511719 Z M 4.269531 26.800781 C 4.347656 26.800781 4.414062 26.765625 4.46875 26.710938 L 6.75 24.429688 C 6.859375 24.320312 6.859375 24.132812 6.75 24.023438 C 6.640625 23.914062 6.453125 23.914062 6.34375 24.023438 L 4.0625 26.304688 C 3.953125 26.414062 3.953125 26.601562 4.0625 26.710938 C 4.117188 26.765625 4.191406 26.800781 4.257812 26.800781 Z M 37.328125 14.832031 L 35.046875 14.832031 C 34.894531 14.832031 34.761719 14.964844 34.761719 15.117188 C 34.761719 15.273438 34.894531 15.402344 35.046875 15.402344 L 37.328125 15.402344 C 37.484375 15.402344 37.613281 15.273438 37.613281 15.117188 C 37.613281 14.964844 37.484375 14.832031 37.328125 14.832031 Z M 9.972656 14.832031 L 7.691406 14.832031 C 7.539062 14.832031 7.40625 14.964844 7.40625 15.117188 C 7.40625 15.273438 7.539062 15.402344 7.691406 15.402344 L 9.972656 15.402344 C 10.128906 15.402344 10.257812 15.273438 10.257812 15.117188 C 10.257812 14.964844 10.128906 14.832031 9.972656 14.832031 Z M 31.066406 29.082031 L 33.917969 29.082031 C 34.070312 29.082031 34.203125 28.949219 34.203125 28.796875 C 34.203125 28.640625 34.070312 28.511719 33.917969 28.511719 L 31.921875 28.511719 L 31.921875 26.515625 C 31.921875 26.359375 31.789062 26.230469 31.636719 26.230469 C 31.484375 26.230469 31.351562 26.359375 31.351562 26.515625 L 31.351562 28.511719 L 31.066406 28.511719 C 30.527344 28.511719 30.035156 28.71875 29.664062 29.09375 C 29.289062 29.464844 29.082031 29.980469 29.082031 30.507812 C 29.082031 31.035156 29.289062 31.550781 29.664062 31.910156 C 30.035156 32.285156 30.539062 32.492188 31.078125 32.492188 L 32.21875 32.492188 C 32.601562 32.492188 32.953125 32.636719 33.226562 32.910156 C 33.492188 33.171875 33.644531 33.535156 33.644531 33.917969 C 33.644531 34.300781 33.492188 34.664062 33.226562 34.925781 C 32.964844 35.203125 32.601562 35.34375 32.21875 35.34375 L 29.367188 35.34375 C 29.210938 35.34375 29.082031 35.476562 29.082031 35.628906 C 29.082031 35.78125 29.210938 35.914062 29.367188 35.914062 L 31.363281 35.914062 L 31.363281 37.910156 C 31.363281 38.066406 31.496094 38.195312 31.648438 38.195312 C 31.800781 38.195312 31.933594 38.066406 31.933594 37.910156 L 31.933594 35.914062 L 32.21875 35.914062 C 32.753906 35.914062 33.25 35.707031 33.621094 35.332031 C 33.996094 34.960938 34.203125 34.445312 34.203125 33.917969 C 34.203125 33.390625 33.996094 32.875 33.621094 32.515625 C 33.25 32.140625 32.746094 31.933594 32.207031 31.933594 L 31.066406 31.933594 C 30.683594 31.933594 30.332031 31.789062 30.058594 31.515625 C 29.792969 31.253906 29.640625 30.890625 29.640625 30.507812 C 29.640625 30.125 29.792969 29.761719 30.058594 29.5 C 30.320312 29.222656 30.683594 29.082031 31.066406 29.082031 Z M 41.039062 32.21875 C 41.039062 37.40625 36.8125 41.617188 31.636719 41.617188 C 26.460938 41.617188 22.238281 37.394531 22.238281 32.21875 C 22.238281 27.042969 26.460938 22.816406 31.636719 22.816406 C 36.8125 22.816406 41.039062 27.042969 41.039062 32.21875 Z M 40.46875 32.21875 C 40.46875 27.347656 36.507812 23.386719 31.636719 23.386719 C 26.765625 23.386719 22.808594 27.347656 22.808594 32.21875 C 22.808594 37.089844 26.765625 41.046875 31.636719 41.046875 C 36.507812 41.046875 40.46875 37.089844 40.46875 32.21875 Z M 1.144531 38.753906 C 0.769531 38.382812 0.5625 37.878906 0.5625 37.351562 L 0.5625 36.210938 C 0.5625 35.683594 0.769531 35.167969 1.144531 34.796875 C 1.515625 34.421875 2.019531 34.214844 2.546875 34.214844 L 12.804688 34.214844 C 13.339844 34.214844 13.835938 34.421875 14.21875 34.796875 C 14.589844 35.167969 14.800781 35.671875 14.800781 36.199219 L 14.800781 37.339844 C 14.800781 37.867188 14.589844 38.382812 14.21875 38.753906 C 14.21875 38.753906 14.207031 38.753906 14.195312 38.765625 L 15.085938 38.765625 C 16.183594 38.765625 17.082031 39.667969 17.082031 40.761719 L 17.082031 42.429688 C 17.082031 43.242188 16.421875 43.898438 15.613281 43.898438 L 4.839844 43.898438 C 4.304688 43.898438 3.808594 43.691406 3.425781 43.320312 C 3.050781 42.945312 2.84375 42.441406 2.84375 41.914062 L 2.84375 40.773438 C 2.84375 40.246094 3.050781 39.730469 3.425781 39.359375 C 3.425781 39.359375 3.4375 39.359375 3.449219 39.347656 L 2.558594 39.347656 C 2.019531 39.347656 1.527344 39.140625 1.144531 38.765625 Z M 12.816406 39.335938 L 4.839844 39.335938 C 4.457031 39.335938 4.105469 39.480469 3.832031 39.753906 C 3.566406 40.015625 3.414062 40.378906 3.414062 40.761719 L 3.414062 41.902344 C 3.414062 42.277344 3.566406 42.648438 3.832031 42.914062 C 4.105469 43.1875 4.457031 43.328125 4.839844 43.328125 L 15.621094 43.328125 C 16.117188 43.328125 16.523438 42.921875 16.523438 42.429688 L 16.523438 40.761719 C 16.523438 39.972656 15.886719 39.335938 15.097656 39.335938 Z M 1.132812 37.339844 C 1.132812 37.714844 1.285156 38.085938 1.550781 38.351562 C 1.824219 38.625 2.175781 38.765625 2.558594 38.765625 L 12.816406 38.765625 C 13.199219 38.765625 13.550781 38.625 13.824219 38.351562 C 14.085938 38.085938 14.242188 37.726562 14.242188 37.339844 L 14.242188 36.199219 C 14.242188 35.828125 14.085938 35.453125 13.824219 35.191406 C 13.550781 34.917969 13.199219 34.773438 12.816406 34.773438 L 2.558594 34.773438 C 2.175781 34.773438 1.824219 34.917969 1.550781 35.191406 C 1.285156 35.453125 1.132812 35.816406 1.132812 36.199219 Z M 43.035156 1.429688 C 43.933594 2.328125 44.449219 3.578125 44.449219 4.851562 L 44.449219 25.375 C 44.449219 26.285156 44.175781 27.160156 43.703125 27.929688 C 44.183594 29.269531 44.449219 30.703125 44.449219 32.207031 C 44.449219 39.28125 38.699219 45.03125 31.625 45.03125 C 24.550781 45.03125 18.804688 39.28125 18.804688 32.207031 C 18.804688 31.527344 18.871094 30.871094 18.980469 30.210938 L 5.410156 30.210938 C 4.136719 30.210938 2.886719 29.695312 1.988281 28.796875 C 1.089844 27.898438 0.574219 26.644531 0.574219 25.375 L 0.574219 4.863281 C 0.574219 3.589844 1.089844 2.339844 1.988281 1.441406 C 2.886719 0.539062 4.136719 0.0234375 5.410156 0.0234375 L 39.609375 0.0234375 C 40.882812 0.0234375 42.132812 0.539062 43.035156 1.441406 Z M 43.878906 32.207031 C 43.878906 25.449219 38.382812 19.957031 31.625 19.957031 C 24.871094 19.957031 19.375 25.449219 19.375 32.207031 C 19.375 38.964844 24.871094 44.460938 31.625 44.460938 C 38.382812 44.460938 43.878906 38.964844 43.878906 32.207031 Z M 36.890625 20.527344 C 37.964844 19.835938 39.183594 19.441406 40.457031 19.386719 L 40.457031 10.828125 C 38.65625 10.761719 36.980469 10.027344 35.707031 8.746094 C 34.445312 7.484375 33.699219 5.773438 33.621094 3.996094 L 11.386719 3.996094 C 11.324219 5.773438 10.566406 7.496094 9.304688 8.746094 C 8.03125 10.027344 6.355469 10.753906 4.554688 10.828125 L 4.554688 19.386719 C 6.355469 19.449219 8.03125 20.1875 9.304688 21.46875 C 10.566406 22.730469 11.3125 24.441406 11.386719 26.21875 L 20.296875 26.21875 C 21.152344 24.617188 22.335938 23.214844 23.75 22.105469 C 23.34375 22.183594 22.929688 22.226562 22.5 22.226562 C 18.574219 22.226562 15.371094 19.035156 15.371094 15.097656 C 15.371094 11.160156 18.5625 7.964844 22.5 7.964844 C 26.4375 7.964844 29.628906 11.160156 29.628906 15.097656 C 29.628906 17.003906 28.863281 18.738281 27.632812 20.011719 C 28.894531 19.59375 30.234375 19.363281 31.613281 19.363281 C 33.492188 19.363281 35.269531 19.78125 36.878906 20.503906 Z M 29.058594 15.105469 C 29.058594 11.488281 26.121094 8.546875 22.5 8.546875 C 18.878906 8.546875 15.941406 11.488281 15.941406 15.105469 C 15.941406 18.726562 18.878906 21.667969 22.5 21.667969 C 26.121094 21.667969 29.058594 18.726562 29.058594 15.105469 Z M 43.878906 4.851562 C 43.878906 3.722656 43.417969 2.625 42.628906 1.824219 C 41.839844 1.023438 40.730469 0.574219 39.609375 0.574219 L 5.410156 0.574219 C 4.28125 0.574219 3.183594 1.035156 2.394531 1.824219 C 1.59375 2.625 1.144531 3.722656 1.144531 4.851562 L 1.144531 25.375 C 1.144531 26.503906 1.605469 27.601562 2.394531 28.402344 C 3.183594 29.203125 4.292969 29.652344 5.410156 29.652344 L 19.066406 29.652344 C 19.273438 28.652344 19.605469 27.699219 20.019531 26.800781 L 11.113281 26.800781 C 10.960938 26.800781 10.828125 26.667969 10.828125 26.515625 C 10.828125 24.792969 10.128906 23.101562 8.910156 21.886719 C 7.671875 20.644531 6.023438 19.964844 4.269531 19.964844 C 4.117188 19.964844 3.984375 19.835938 3.984375 19.679688 L 3.984375 10.566406 C 3.984375 10.414062 4.117188 10.28125 4.269531 10.28125 C 6.023438 10.28125 7.671875 9.601562 8.898438 8.359375 C 10.117188 7.144531 10.816406 5.453125 10.816406 3.734375 C 10.816406 3.578125 10.949219 3.449219 11.101562 3.449219 L 33.898438 3.449219 C 34.050781 3.449219 34.183594 3.578125 34.183594 3.734375 C 34.183594 5.453125 34.882812 7.144531 36.101562 8.359375 C 37.339844 9.601562 38.984375 10.28125 40.742188 10.28125 C 40.894531 10.28125 41.027344 10.414062 41.027344 10.566406 L 41.027344 19.679688 C 41.027344 19.835938 40.894531 19.964844 40.742188 19.964844 C 39.601562 19.964844 38.492188 20.273438 37.503906 20.84375 C 40.136719 22.214844 42.242188 24.464844 43.417969 27.207031 C 43.691406 26.636719 43.878906 26.03125 43.878906 25.386719 Z M 43.878906 4.851562 " fill-opacity="1" fill-rule="nonzero"/></g></svg>