<svg xmlns="http://www.w3.org/2000/svg" xmlns:xlink="http://www.w3.org/1999/xlink" width="60" zoomAndPan="magnify" viewBox="0 0 45 44.999999" height="60" preserveAspectRatio="xMidYMid meet" version="1.0"><defs><clipPath id="215052797e"><path d="M 32.363281 20.921875 L 44.96875 20.921875 L 44.96875 32.441406 L 32.363281 32.441406 Z M 32.363281 20.921875 " clip-rule="nonzero"/></clipPath><clipPath id="a72673ad53"><path d="M 25 5.933594 L 41 5.933594 L 41 22 L 25 22 Z M 25 5.933594 " clip-rule="nonzero"/></clipPath><clipPath id="f55d998611"><path d="M 9.890625 27.570312 L 35.097656 27.570312 L 35.097656 38.933594 L 9.890625 38.933594 Z M 9.890625 27.570312 " clip-rule="nonzero"/></clipPath><clipPath id="6b0be0f8f2"><path d="M 4 5.933594 L 20 5.933594 L 20 22 L 4 22 Z M 4 5.933594 " clip-rule="nonzero"/></clipPath></defs><g clip-path="url(#215052797e)"><path fill="#bb1125" d="M 44.96875 32.425781 L 37.023438 32.425781 L 37.023438 31.675781 L 44.210938 31.675781 C 44.082031 27.636719 41.898438 23.914062 38.429688 21.835938 C 36.667969 23.152344 34.582031 23.847656 32.375 23.847656 L 32.375 23.097656 C 34.5 23.097656 36.5 22.402344 38.167969 21.089844 L 38.367188 20.933594 L 38.585938 21.058594 C 42.523438 23.304688 44.96875 27.515625 44.96875 32.050781 L 44.96875 32.425781 " fill-opacity="1" fill-rule="nonzero"/></g><path fill="#bb1125" d="M 22.5 13.320312 C 18.664062 13.320312 15.546875 16.453125 15.546875 20.300781 C 15.546875 22.960938 17.015625 25.351562 19.386719 26.542969 C 20.355469 27.03125 21.402344 27.28125 22.5 27.28125 C 23.597656 27.28125 24.644531 27.03125 25.613281 26.542969 C 27.984375 25.351562 29.453125 22.960938 29.453125 20.300781 C 29.453125 16.453125 26.335938 13.320312 22.5 13.320312 Z M 22.5 28.03125 C 21.285156 28.03125 20.125 27.757812 19.046875 27.214844 C 16.425781 25.894531 14.792969 23.246094 14.792969 20.300781 C 14.792969 16.039062 18.25 12.570312 22.5 12.570312 C 26.75 12.570312 30.207031 16.039062 30.207031 20.300781 C 30.207031 23.246094 28.574219 25.894531 25.953125 27.214844 C 24.878906 27.757812 23.714844 28.03125 22.5 28.03125 " fill-opacity="1" fill-rule="nonzero"/><g clip-path="url(#a72673ad53)"><path fill="#bb1125" d="M 32.375 21.394531 L 32.375 20.644531 C 33.472656 20.644531 34.519531 20.394531 35.488281 19.90625 C 37.859375 18.714844 39.332031 16.324219 39.332031 13.664062 C 39.332031 9.816406 36.210938 6.683594 32.375 6.683594 C 29.816406 6.683594 27.472656 8.089844 26.253906 10.347656 L 25.59375 9.992188 C 26.941406 7.488281 29.542969 5.933594 32.375 5.933594 C 36.625 5.933594 40.082031 9.402344 40.082031 13.664062 C 40.082031 16.609375 38.453125 19.257812 35.828125 20.578125 C 34.753906 21.121094 33.589844 21.394531 32.375 21.394531 " fill-opacity="1" fill-rule="nonzero"/></g><g clip-path="url(#f55d998611)"><path fill="#bb1125" d="M 10.664062 38.3125 L 34.335938 38.3125 C 34.207031 34.273438 32.023438 30.550781 28.554688 28.472656 C 26.792969 29.789062 24.707031 30.484375 22.5 30.484375 C 20.292969 30.484375 18.207031 29.789062 16.445312 28.472656 C 12.976562 30.550781 10.792969 34.273438 10.664062 38.3125 Z M 35.09375 39.0625 L 9.90625 39.0625 L 9.90625 38.6875 C 9.90625 34.152344 12.351562 29.941406 16.289062 27.695312 L 16.507812 27.570312 L 16.707031 27.726562 C 18.375 29.039062 20.378906 29.730469 22.5 29.730469 C 24.621094 29.730469 26.625 29.039062 28.292969 27.726562 L 28.492188 27.570312 L 28.710938 27.695312 C 32.648438 29.941406 35.09375 34.152344 35.09375 38.6875 L 35.09375 39.0625 " fill-opacity="1" fill-rule="nonzero"/></g><g clip-path="url(#6b0be0f8f2)"><path fill="#bb1125" d="M 12.625 21.394531 C 11.410156 21.394531 10.246094 21.121094 9.171875 20.578125 C 6.550781 19.257812 4.917969 16.609375 4.917969 13.664062 C 4.917969 9.402344 8.375 5.933594 12.625 5.933594 C 15.457031 5.933594 18.058594 7.488281 19.40625 9.992188 L 18.746094 10.347656 C 17.527344 8.089844 15.183594 6.683594 12.625 6.683594 C 8.789062 6.683594 5.667969 9.816406 5.667969 13.664062 C 5.667969 16.324219 7.140625 18.714844 9.511719 19.90625 C 10.480469 20.394531 11.527344 20.644531 12.625 20.644531 L 12.625 21.394531 " fill-opacity="1" fill-rule="nonzero"/></g><path fill="#bb1125" d="M 7.976562 32.425781 L 0.03125 32.425781 L 0.03125 32.050781 C 0.03125 27.515625 2.476562 23.304688 6.414062 21.058594 L 6.632812 20.933594 L 6.832031 21.089844 C 8.5 22.402344 10.503906 23.097656 12.625 23.097656 L 12.625 23.847656 C 10.417969 23.847656 8.332031 23.152344 6.570312 21.835938 C 3.101562 23.914062 0.917969 27.636719 0.789062 31.675781 L 7.976562 31.675781 L 7.976562 32.425781 " fill-opacity="1" fill-rule="nonzero"/></svg>