<svg xmlns="http://www.w3.org/2000/svg" xmlns:xlink="http://www.w3.org/1999/xlink" width="60" zoomAndPan="magnify" viewBox="0 0 45 44.999999" height="60" preserveAspectRatio="xMidYMid meet" version="1.0"><defs><clipPath id="1ce59b136d"><path d="M 0 19 L 38 19 L 38 43.707031 L 0 43.707031 Z M 0 19 " clip-rule="nonzero"/></clipPath></defs><path fill="#bb1125" d="M 31.738281 28.566406 C 31.535156 28.566406 31.332031 28.515625 31.148438 28.414062 C 27.632812 26.425781 24.757812 23.738281 22.605469 20.421875 C 22.523438 20.296875 22.445312 20.179688 22.375 20.0625 C 20.316406 16.789062 19.351562 13.523438 18.902344 11.363281 C 18.738281 10.570312 18.613281 9.789062 18.535156 9.035156 C 18.5 8.703125 18.597656 8.382812 18.8125 8.132812 C 19.027344 7.878906 19.34375 7.726562 19.675781 7.710938 C 19.753906 7.707031 19.824219 7.703125 19.882812 7.695312 C 22.824219 7.421875 23.546875 4.4375 23.726562 3.167969 C 23.785156 2.730469 24.078125 2.367188 24.488281 2.214844 C 25.015625 2.015625 25.699219 1.832031 26.585938 1.652344 C 30.003906 0.957031 33.472656 0.957031 36.894531 1.652344 C 37.789062 1.835938 38.476562 2.019531 38.992188 2.214844 C 39.402344 2.367188 39.695312 2.734375 39.753906 3.167969 C 39.933594 4.4375 40.667969 7.421875 43.597656 7.695312 C 43.597656 7.695312 43.601562 7.695312 43.601562 7.695312 C 43.660156 7.703125 43.726562 7.707031 43.804688 7.710938 C 44.136719 7.726562 44.453125 7.878906 44.667969 8.128906 C 44.882812 8.382812 44.984375 8.703125 44.949219 9.035156 C 44.867188 9.796875 44.742188 10.582031 44.578125 11.363281 C 44.132812 13.519531 43.167969 16.777344 41.109375 20.066406 C 40.03125 21.785156 38.75 23.359375 37.300781 24.738281 C 35.835938 26.144531 34.160156 27.378906 32.332031 28.414062 C 32.148438 28.515625 31.945312 28.566406 31.738281 28.566406 Z M 31.742188 1.835938 C 30.066406 1.835938 28.390625 2.003906 26.726562 2.34375 C 25.890625 2.515625 25.21875 2.691406 24.738281 2.875 C 24.570312 2.9375 24.449219 3.085938 24.421875 3.265625 C 24.339844 3.882812 24.097656 5.082031 23.441406 6.164062 C 22.628906 7.507812 21.457031 8.257812 19.953125 8.398438 C 19.882812 8.40625 19.800781 8.410156 19.707031 8.414062 C 19.566406 8.421875 19.441406 8.484375 19.351562 8.589844 C 19.261719 8.695312 19.222656 8.824219 19.234375 8.957031 C 19.3125 9.691406 19.433594 10.449219 19.59375 11.21875 C 20.03125 13.324219 20.972656 16.5 22.972656 19.691406 C 23.042969 19.800781 23.113281 19.914062 23.195312 20.035156 C 25.289062 23.257812 28.082031 25.867188 31.496094 27.796875 C 31.648438 27.882812 31.832031 27.882812 31.984375 27.796875 C 33.765625 26.792969 35.390625 25.59375 36.8125 24.230469 C 38.21875 22.886719 39.460938 21.359375 40.507812 19.691406 C 42.515625 16.492188 43.453125 13.320312 43.886719 11.222656 C 44.046875 10.460938 44.167969 9.699219 44.246094 8.957031 C 44.261719 8.824219 44.21875 8.691406 44.128906 8.589844 C 44.039062 8.484375 43.914062 8.421875 43.773438 8.414062 C 43.683594 8.410156 43.601562 8.40625 43.527344 8.398438 C 42.027344 8.257812 40.851562 7.503906 40.039062 6.164062 C 39.386719 5.085938 39.144531 3.886719 39.058594 3.265625 C 39.03125 3.085938 38.910156 2.9375 38.746094 2.875 C 38.261719 2.691406 37.609375 2.519531 36.753906 2.34375 C 35.089844 2.003906 33.417969 1.835938 31.742188 1.835938 Z M 44.597656 8.996094 Z M 44.597656 8.996094 " fill-opacity="1" fill-rule="nonzero"/><path fill="#bb1125" d="M 31.742188 25.941406 C 31.675781 25.941406 31.613281 25.925781 31.554688 25.890625 C 28.242188 23.851562 25.609375 21.089844 23.730469 17.679688 C 22.144531 14.796875 21.425781 12.039062 21.105469 10.234375 C 21.074219 10.058594 21.179688 9.882812 21.355469 9.835938 C 21.96875 9.65625 22.539062 9.386719 23.058594 9.027344 C 24.910156 7.730469 25.640625 5.597656 25.914062 4.445312 C 25.945312 4.316406 26.042969 4.214844 26.171875 4.183594 C 26.429688 4.117188 26.730469 4.050781 27.058594 3.980469 C 28.597656 3.667969 30.171875 3.511719 31.742188 3.511719 C 33.308594 3.511719 34.882812 3.667969 36.421875 3.980469 C 36.757812 4.050781 37.058594 4.117188 37.3125 4.183594 C 37.4375 4.214844 37.539062 4.316406 37.566406 4.445312 C 37.875 5.757812 38.941406 8.914062 42.125 9.832031 C 42.296875 9.882812 42.40625 10.058594 42.375 10.234375 C 42.082031 11.871094 41.621094 13.488281 41 15.042969 C 39.980469 17.59375 38.582031 19.867188 36.847656 21.800781 C 35.445312 23.371094 33.789062 24.746094 31.925781 25.890625 C 31.871094 25.925781 31.804688 25.941406 31.742188 25.941406 Z M 21.855469 10.417969 C 22.582031 14.195312 24.824219 20.824219 31.742188 25.175781 C 33.46875 24.089844 35.011719 22.796875 36.320312 21.332031 C 38 19.457031 39.355469 17.253906 40.34375 14.78125 C 40.90625 13.367188 41.339844 11.898438 41.621094 10.414062 C 40.359375 9.984375 39.289062 9.195312 38.445312 8.0625 C 37.605469 6.941406 37.164062 5.714844 36.933594 4.816406 C 36.738281 4.769531 36.519531 4.722656 36.28125 4.671875 C 34.789062 4.371094 33.261719 4.214844 31.742188 4.214844 C 30.21875 4.214844 28.691406 4.371094 27.199219 4.671875 C 26.964844 4.722656 26.746094 4.769531 26.550781 4.816406 C 26.21875 6.105469 25.394531 8.253906 23.460938 9.605469 C 22.96875 9.949219 22.429688 10.222656 21.855469 10.417969 Z M 21.855469 10.417969 " fill-opacity="1" fill-rule="nonzero"/><path fill="#bb1125" d="M 34.839844 19.804688 L 28.644531 19.804688 C 27.960938 19.804688 27.40625 19.25 27.40625 18.570312 L 27.40625 13.140625 C 27.40625 12.457031 27.960938 11.902344 28.644531 11.902344 L 34.839844 11.902344 C 35.519531 11.902344 36.074219 12.457031 36.074219 13.140625 L 36.074219 18.570312 C 36.074219 19.25 35.519531 19.804688 34.839844 19.804688 Z M 28.644531 12.609375 C 28.351562 12.609375 28.113281 12.847656 28.113281 13.140625 L 28.113281 18.570312 C 28.113281 18.863281 28.351562 19.101562 28.644531 19.101562 L 34.839844 19.101562 C 35.132812 19.101562 35.371094 18.863281 35.371094 18.570312 L 35.371094 13.140625 C 35.371094 12.847656 35.132812 12.609375 34.839844 12.609375 Z M 28.644531 12.609375 " fill-opacity="1" fill-rule="nonzero"/><path fill="#bb1125" d="M 33.976562 12.609375 C 33.78125 12.609375 33.625 12.449219 33.625 12.257812 L 33.625 10.445312 C 33.625 9.394531 32.769531 8.542969 31.71875 8.542969 C 30.667969 8.542969 29.816406 9.394531 29.816406 10.445312 L 29.816406 12.257812 C 29.816406 12.449219 29.65625 12.609375 29.460938 12.609375 C 29.265625 12.609375 29.109375 12.449219 29.109375 12.257812 L 29.109375 10.445312 C 29.109375 9.007812 30.28125 7.835938 31.71875 7.835938 C 33.160156 7.835938 34.328125 9.007812 34.328125 10.445312 L 34.328125 12.257812 C 34.328125 12.449219 34.171875 12.609375 33.976562 12.609375 Z M 33.976562 12.609375 " fill-opacity="1" fill-rule="nonzero"/><path fill="#bb1125" d="M 31.742188 18.171875 C 31.625 18.171875 31.507812 18.152344 31.402344 18.109375 C 31.054688 17.96875 30.828125 17.636719 30.828125 17.261719 L 30.828125 16.015625 C 30.828125 15.960938 30.835938 15.902344 30.847656 15.847656 C 30.867188 15.734375 30.941406 15.636719 31.046875 15.589844 C 31.152344 15.542969 31.273438 15.550781 31.375 15.609375 C 31.484375 15.675781 31.609375 15.710938 31.742188 15.710938 C 31.871094 15.710938 32 15.675781 32.113281 15.609375 C 32.210938 15.550781 32.332031 15.542969 32.4375 15.589844 C 32.539062 15.636719 32.613281 15.734375 32.636719 15.847656 C 32.648438 15.902344 32.652344 15.960938 32.652344 16.015625 L 32.652344 17.261719 C 32.652344 17.761719 32.242188 18.171875 31.742188 18.171875 Z M 31.535156 16.402344 L 31.535156 17.261719 C 31.535156 17.347656 31.585938 17.421875 31.664062 17.453125 C 31.6875 17.460938 31.714844 17.46875 31.742188 17.46875 C 31.855469 17.46875 31.949219 17.375 31.949219 17.261719 L 31.949219 16.398438 C 31.8125 16.417969 31.671875 16.417969 31.535156 16.398438 Z M 31.535156 16.402344 " fill-opacity="1" fill-rule="nonzero"/><path fill="#bb1125" d="M 31.742188 16.414062 C 31.484375 16.414062 31.234375 16.347656 31.015625 16.21875 C 30.992188 16.207031 30.96875 16.1875 30.9375 16.167969 C 30.539062 15.902344 30.300781 15.457031 30.300781 14.976562 C 30.300781 14.183594 30.949219 13.539062 31.742188 13.539062 C 32.222656 13.539062 32.671875 13.777344 32.9375 14.179688 C 33.09375 14.414062 33.179688 14.6875 33.179688 14.976562 C 33.179688 15.484375 32.90625 15.957031 32.46875 16.214844 C 32.25 16.347656 31.996094 16.414062 31.742188 16.414062 Z M 31.742188 14.242188 C 31.335938 14.242188 31.007812 14.570312 31.007812 14.976562 C 31.007812 15.222656 31.128906 15.449219 31.335938 15.585938 C 31.34375 15.589844 31.351562 15.59375 31.355469 15.601562 C 31.359375 15.601562 31.363281 15.605469 31.367188 15.605469 C 31.371094 15.605469 31.371094 15.609375 31.375 15.609375 C 31.484375 15.675781 31.609375 15.710938 31.742188 15.710938 C 31.871094 15.710938 32 15.675781 32.113281 15.609375 C 32.339844 15.472656 32.472656 15.238281 32.472656 14.976562 C 32.472656 14.832031 32.429688 14.691406 32.351562 14.570312 C 32.214844 14.367188 31.984375 14.242188 31.742188 14.242188 Z M 31.742188 14.242188 " fill-opacity="1" fill-rule="nonzero"/><g clip-path="url(#1ce59b136d)"><path fill="#bb1125" d="M 34.105469 44.035156 L 3.320312 44.035156 C 1.496094 44.035156 0.015625 42.550781 0.015625 40.730469 L 0.015625 23.183594 C 0.015625 21.359375 1.496094 19.878906 3.320312 19.878906 L 22.898438 19.878906 C 23.019531 19.878906 23.132812 19.9375 23.195312 20.039062 C 25.289062 23.257812 28.082031 25.867188 31.496094 27.796875 C 31.648438 27.882812 31.835938 27.882812 31.984375 27.796875 C 33.765625 26.792969 35.390625 25.59375 36.8125 24.230469 C 36.917969 24.132812 37.066406 24.101562 37.195312 24.160156 C 37.328125 24.214844 37.410156 24.34375 37.410156 24.484375 L 37.410156 40.730469 C 37.410156 42.550781 35.929688 44.035156 34.105469 44.035156 Z M 3.320312 20.582031 C 1.886719 20.582031 0.71875 21.75 0.71875 23.183594 L 0.71875 40.730469 C 0.71875 42.164062 1.886719 43.328125 3.320312 43.328125 L 34.105469 43.328125 C 35.539062 43.328125 36.707031 42.164062 36.707031 40.730469 L 36.707031 25.289062 C 35.386719 26.46875 33.917969 27.515625 32.332031 28.414062 C 31.964844 28.617188 31.515625 28.617188 31.148438 28.414062 C 27.691406 26.457031 24.851562 23.824219 22.710938 20.582031 Z M 3.320312 20.582031 " fill-opacity="1" fill-rule="nonzero"/></g><path fill="#bb1125" d="M 8.648438 28.082031 L 5.378906 28.082031 C 4.8125 28.082031 4.347656 27.617188 4.347656 27.050781 L 4.347656 25.640625 C 4.347656 25.132812 4.726562 24.695312 5.226562 24.625 C 5.289062 24.613281 5.34375 24.609375 5.378906 24.609375 L 8.648438 24.609375 C 9.21875 24.609375 9.679688 25.074219 9.679688 25.640625 L 9.679688 27.050781 C 9.679688 27.109375 9.675781 27.160156 9.667969 27.207031 C 9.59375 27.707031 9.15625 28.082031 8.648438 28.082031 Z M 5.378906 25.316406 C 5.359375 25.316406 5.355469 25.316406 5.351562 25.316406 C 5.34375 25.320312 5.339844 25.320312 5.332031 25.320312 C 5.171875 25.34375 5.054688 25.480469 5.054688 25.640625 L 5.054688 27.050781 C 5.054688 27.230469 5.199219 27.375 5.378906 27.375 L 8.648438 27.375 C 8.808594 27.375 8.949219 27.253906 8.96875 27.097656 C 8.972656 27.089844 8.972656 27.082031 8.972656 27.074219 C 8.972656 27.074219 8.976562 27.070312 8.976562 27.050781 L 8.976562 25.640625 C 8.976562 25.460938 8.828125 25.316406 8.648438 25.316406 Z M 5.378906 25.316406 " fill-opacity="1" fill-rule="nonzero"/><path fill="#bb1125" d="M 7.625 32.546875 L 3.78125 32.546875 C 3.585938 32.546875 3.429688 32.390625 3.429688 32.195312 C 3.429688 32 3.585938 31.84375 3.78125 31.84375 L 7.625 31.84375 C 7.820312 31.84375 7.976562 32 7.976562 32.195312 C 7.976562 32.390625 7.820312 32.546875 7.625 32.546875 Z M 7.625 32.546875 " fill-opacity="1" fill-rule="nonzero"/><path fill="#bb1125" d="M 13.410156 32.546875 L 9.5625 32.546875 C 9.367188 32.546875 9.210938 32.390625 9.210938 32.195312 C 9.210938 32 9.367188 31.84375 9.5625 31.84375 L 13.410156 31.84375 C 13.601562 31.84375 13.761719 32 13.761719 32.195312 C 13.761719 32.390625 13.601562 32.546875 13.410156 32.546875 Z M 13.410156 32.546875 " fill-opacity="1" fill-rule="nonzero"/><path fill="#bb1125" d="M 19.191406 32.546875 L 15.347656 32.546875 C 15.152344 32.546875 14.992188 32.390625 14.992188 32.195312 C 14.992188 32 15.152344 31.84375 15.347656 31.84375 L 19.191406 31.84375 C 19.386719 31.84375 19.542969 32 19.542969 32.195312 C 19.542969 32.390625 19.386719 32.546875 19.191406 32.546875 Z M 19.191406 32.546875 " fill-opacity="1" fill-rule="nonzero"/><path fill="#bb1125" d="M 24.972656 32.546875 L 21.128906 32.546875 C 20.933594 32.546875 20.777344 32.390625 20.777344 32.195312 C 20.777344 32 20.933594 31.84375 21.128906 31.84375 L 24.972656 31.84375 C 25.167969 31.84375 25.328125 32 25.328125 32.195312 C 25.328125 32.390625 25.167969 32.546875 24.972656 32.546875 Z M 24.972656 32.546875 " fill-opacity="1" fill-rule="nonzero"/><path fill="#bb1125" d="M 30.757812 32.546875 L 26.914062 32.546875 C 26.71875 32.546875 26.558594 32.390625 26.558594 32.195312 C 26.558594 32 26.71875 31.84375 26.914062 31.84375 L 30.757812 31.84375 C 30.953125 31.84375 31.109375 32 31.109375 32.195312 C 31.109375 32.390625 30.953125 32.546875 30.757812 32.546875 Z M 30.757812 32.546875 " fill-opacity="1" fill-rule="nonzero"/><path fill="#bb1125" d="M 30.144531 39.382812 L 26.53125 39.382812 C 26.335938 39.382812 26.175781 39.222656 26.175781 39.027344 C 26.175781 38.832031 26.335938 38.675781 26.53125 38.675781 L 30.144531 38.675781 C 30.339844 38.675781 30.5 38.832031 30.5 39.027344 C 30.5 39.222656 30.339844 39.382812 30.144531 39.382812 Z M 30.144531 39.382812 " fill-opacity="1" fill-rule="nonzero"/><path fill="#bb1125" d="M 33.070312 41.402344 L 26.53125 41.402344 C 26.335938 41.402344 26.175781 41.242188 26.175781 41.046875 C 26.175781 40.855469 26.335938 40.695312 26.53125 40.695312 L 33.070312 40.695312 C 33.265625 40.695312 33.421875 40.855469 33.421875 41.046875 C 33.421875 41.242188 33.265625 41.402344 33.070312 41.402344 Z M 33.070312 41.402344 " fill-opacity="1" fill-rule="nonzero"/></svg>