<svg xmlns="http://www.w3.org/2000/svg" xmlns:xlink="http://www.w3.org/1999/xlink" width="83" zoomAndPan="magnify" viewBox="0 0 62.25 62.249997" height="83" preserveAspectRatio="xMidYMid meet" version="1.0"><defs><clipPath id="0d2710ec0c"><path d="M 0 0 L 61.507812 0 L 61.507812 61.507812 L 0 61.507812 Z M 0 0 " clip-rule="nonzero"/></clipPath></defs><g clip-path="url(#0d2710ec0c)"><path fill="#ffe8eb" d="M 61.507812 30.753906 C 61.507812 31.761719 61.460938 32.765625 61.359375 33.769531 C 61.261719 34.769531 61.113281 35.765625 60.917969 36.753906 C 60.722656 37.742188 60.476562 38.71875 60.183594 39.683594 C 59.890625 40.644531 59.554688 41.59375 59.167969 42.523438 C 58.78125 43.453125 58.351562 44.363281 57.878906 45.253906 C 57.402344 46.140625 56.886719 47.003906 56.324219 47.839844 C 55.765625 48.679688 55.167969 49.484375 54.527344 50.265625 C 53.890625 51.042969 53.214844 51.789062 52.5 52.5 C 51.789062 53.214844 51.042969 53.890625 50.265625 54.527344 C 49.484375 55.167969 48.679688 55.765625 47.839844 56.324219 C 47.003906 56.886719 46.140625 57.402344 45.253906 57.878906 C 44.363281 58.351562 43.453125 58.78125 42.523438 59.167969 C 41.59375 59.554688 40.644531 59.890625 39.683594 60.183594 C 38.71875 60.476562 37.742188 60.722656 36.753906 60.917969 C 35.765625 61.113281 34.769531 61.261719 33.769531 61.359375 C 32.765625 61.460938 31.761719 61.507812 30.753906 61.507812 C 29.746094 61.507812 28.742188 61.460938 27.738281 61.359375 C 26.738281 61.261719 25.742188 61.113281 24.753906 60.917969 C 23.765625 60.722656 22.789062 60.476562 21.828125 60.183594 C 20.863281 59.890625 19.914062 59.554688 18.984375 59.167969 C 18.054688 58.78125 17.144531 58.351562 16.257812 57.878906 C 15.367188 57.402344 14.503906 56.886719 13.667969 56.324219 C 12.832031 55.765625 12.023438 55.167969 11.242188 54.527344 C 10.464844 53.890625 9.71875 53.214844 9.007812 52.5 C 8.296875 51.789062 7.621094 51.042969 6.980469 50.265625 C 6.34375 49.484375 5.742188 48.679688 5.183594 47.839844 C 4.625 47.003906 4.105469 46.140625 3.632812 45.253906 C 3.15625 44.363281 2.726562 43.453125 2.339844 42.523438 C 1.957031 41.59375 1.617188 40.644531 1.324219 39.683594 C 1.03125 38.71875 0.789062 37.742188 0.589844 36.753906 C 0.394531 35.765625 0.246094 34.769531 0.148438 33.769531 C 0.0507812 32.765625 0 31.761719 0 30.753906 C 0 29.746094 0.0507812 28.742188 0.148438 27.738281 C 0.246094 26.738281 0.394531 25.742188 0.589844 24.753906 C 0.789062 23.765625 1.03125 22.789062 1.324219 21.828125 C 1.617188 20.863281 1.957031 19.914062 2.339844 18.984375 C 2.726562 18.054688 3.15625 17.144531 3.632812 16.257812 C 4.105469 15.367188 4.625 14.503906 5.183594 13.667969 C 5.742188 12.832031 6.34375 12.023438 6.980469 11.242188 C 7.621094 10.464844 8.296875 9.71875 9.007812 9.007812 C 9.71875 8.296875 10.464844 7.621094 11.242188 6.980469 C 12.023438 6.34375 12.832031 5.742188 13.667969 5.183594 C 14.503906 4.625 15.367188 4.105469 16.257812 3.632812 C 17.144531 3.15625 18.054688 2.726562 18.984375 2.339844 C 19.914062 1.957031 20.863281 1.617188 21.828125 1.324219 C 22.789062 1.03125 23.765625 0.789062 24.753906 0.589844 C 25.742188 0.394531 26.738281 0.246094 27.738281 0.148438 C 28.742188 0.0507812 29.746094 0 30.753906 0 C 31.761719 0 32.765625 0.0507812 33.769531 0.148438 C 34.769531 0.246094 35.765625 0.394531 36.753906 0.589844 C 37.742188 0.789062 38.71875 1.03125 39.683594 1.324219 C 40.644531 1.617188 41.59375 1.957031 42.523438 2.339844 C 43.453125 2.726562 44.363281 3.15625 45.253906 3.632812 C 46.140625 4.105469 47.003906 4.625 47.839844 5.183594 C 48.679688 5.742188 49.484375 6.34375 50.265625 6.980469 C 51.042969 7.621094 51.789062 8.296875 52.5 9.007812 C 53.214844 9.71875 53.890625 10.464844 54.527344 11.242188 C 55.167969 12.023438 55.765625 12.832031 56.324219 13.667969 C 56.886719 14.503906 57.402344 15.367188 57.878906 16.257812 C 58.351562 17.144531 58.78125 18.054688 59.167969 18.984375 C 59.554688 19.914062 59.890625 20.863281 60.183594 21.828125 C 60.476562 22.789062 60.722656 23.765625 60.917969 24.753906 C 61.113281 25.742188 61.261719 26.738281 61.359375 27.738281 C 61.460938 28.742188 61.507812 29.746094 61.507812 30.753906 Z M 61.507812 30.753906 " fill-opacity="1" fill-rule="nonzero"/></g></svg>