<svg xmlns="http://www.w3.org/2000/svg" xmlns:xlink="http://www.w3.org/1999/xlink" width="82" zoomAndPan="magnify" viewBox="0 0 61.5 237.749992" height="317" preserveAspectRatio="xMidYMid meet" version="1.0"><defs><clipPath id="f41dbddfe7"><path d="M 0 0.835938 L 61.003906 0.835938 L 61.003906 236.667969 L 0 236.667969 Z M 0 0.835938 " clip-rule="nonzero"/></clipPath></defs><g clip-path="url(#f41dbddfe7)"><path fill="#ffe8eb" d="M 61.003906 118.75 C 61.003906 120.679688 60.957031 122.609375 60.863281 124.535156 C 60.765625 126.464844 60.625 128.386719 60.4375 130.308594 C 60.246094 132.230469 60.011719 134.144531 59.726562 136.054688 C 59.445312 137.960938 59.113281 139.863281 58.738281 141.753906 C 58.363281 143.648438 57.9375 145.53125 57.46875 147.402344 C 57 149.273438 56.488281 151.132812 55.925781 152.980469 C 55.367188 154.828125 54.761719 156.660156 54.109375 158.476562 C 53.460938 160.292969 52.765625 162.09375 52.027344 163.875 C 51.289062 165.660156 50.507812 167.421875 49.683594 169.167969 C 48.859375 170.910156 47.992188 172.632812 47.082031 174.335938 C 46.171875 176.039062 45.21875 177.71875 44.226562 179.371094 C 43.234375 181.027344 42.203125 182.65625 41.132812 184.261719 C 40.058594 185.867188 38.949219 187.445312 37.800781 188.992188 C 36.648438 190.542969 35.460938 192.066406 34.238281 193.554688 C 33.015625 195.046875 31.753906 196.507812 30.457031 197.9375 C 29.160156 199.367188 27.832031 200.765625 26.46875 202.128906 C 25.101562 203.496094 23.707031 204.824219 22.277344 206.121094 C 20.84375 207.417969 19.386719 208.675781 17.894531 209.902344 C 16.402344 211.125 14.878906 212.3125 13.332031 213.460938 C 11.78125 214.613281 10.203125 215.722656 8.597656 216.792969 C 6.992188 217.867188 5.363281 218.898438 3.707031 219.890625 C 2.054688 220.882812 0.375 221.835938 -1.328125 222.742188 C -3.027344 223.652344 -4.753906 224.519531 -6.496094 225.347656 C -8.242188 226.171875 -10.003906 226.953125 -11.789062 227.691406 C -13.570312 228.429688 -15.371094 229.125 -17.1875 229.773438 C -19.003906 230.425781 -20.835938 231.03125 -22.683594 231.589844 C -24.53125 232.148438 -26.390625 232.664062 -28.261719 233.132812 C -30.132812 233.601562 -32.015625 234.023438 -33.90625 234.402344 C -35.800781 234.777344 -37.703125 235.109375 -39.609375 235.390625 C -41.519531 235.675781 -43.433594 235.910156 -45.355469 236.097656 C -47.273438 236.289062 -49.199219 236.429688 -51.125 236.523438 C -53.054688 236.621094 -54.984375 236.667969 -56.914062 236.667969 C -58.84375 236.667969 -60.769531 236.621094 -62.699219 236.523438 C -64.625 236.429688 -66.550781 236.289062 -68.46875 236.097656 C -70.390625 235.910156 -72.304688 235.675781 -74.214844 235.390625 C -76.125 235.109375 -78.023438 234.777344 -79.917969 234.402344 C -81.808594 234.023438 -83.691406 233.601562 -85.5625 233.132812 C -87.4375 232.664062 -89.292969 232.148438 -91.140625 231.589844 C -92.988281 231.03125 -94.820312 230.425781 -96.636719 229.773438 C -98.453125 229.125 -100.253906 228.429688 -102.035156 227.691406 C -103.820312 226.953125 -105.582031 226.171875 -107.328125 225.347656 C -109.074219 224.519531 -110.796875 223.652344 -112.496094 222.742188 C -114.199219 221.835938 -115.878906 220.882812 -117.535156 219.890625 C -119.1875 218.898438 -120.820312 217.867188 -122.421875 216.792969 C -124.027344 215.722656 -125.605469 214.613281 -127.15625 213.460938 C -128.703125 212.3125 -130.226562 211.125 -131.71875 209.902344 C -133.210938 208.675781 -134.671875 207.417969 -136.101562 206.121094 C -137.53125 204.824219 -138.925781 203.496094 -140.292969 202.128906 C -141.65625 200.765625 -142.988281 199.367188 -144.28125 197.9375 C -145.578125 196.507812 -146.839844 195.046875 -148.0625 193.554688 C -149.285156 192.066406 -150.472656 190.542969 -151.625 188.992188 C -152.773438 187.445312 -153.882812 185.867188 -154.957031 184.261719 C -156.027344 182.65625 -157.058594 181.027344 -158.050781 179.371094 C -159.042969 177.71875 -159.996094 176.039062 -160.90625 174.335938 C -161.816406 172.632812 -162.683594 170.910156 -163.507812 169.167969 C -164.332031 167.421875 -165.113281 165.660156 -165.851562 163.875 C -166.589844 162.09375 -167.285156 160.292969 -167.9375 158.476562 C -168.585938 156.660156 -169.191406 154.828125 -169.75 152.980469 C -170.3125 151.132812 -170.824219 149.273438 -171.292969 147.402344 C -171.765625 145.53125 -172.1875 143.648438 -172.5625 141.753906 C -172.9375 139.863281 -173.269531 137.960938 -173.550781 136.054688 C -173.835938 134.144531 -174.070312 132.230469 -174.261719 130.308594 C -174.449219 128.386719 -174.59375 126.464844 -174.6875 124.535156 C -174.78125 122.609375 -174.828125 120.679688 -174.828125 118.75 C -174.828125 116.820312 -174.78125 114.894531 -174.6875 112.964844 C -174.59375 111.039062 -174.449219 109.113281 -174.261719 107.191406 C -174.070312 105.273438 -173.835938 103.359375 -173.550781 101.449219 C -173.269531 99.539062 -172.9375 97.640625 -172.5625 95.746094 C -172.1875 93.855469 -171.765625 91.972656 -171.292969 90.101562 C -170.824219 88.226562 -170.3125 86.367188 -169.75 84.523438 C -169.191406 82.675781 -168.585938 80.84375 -167.9375 79.027344 C -167.285156 77.210938 -166.589844 75.410156 -165.851562 73.625 C -165.113281 71.84375 -164.332031 70.078125 -163.507812 68.335938 C -162.683594 66.589844 -161.816406 64.867188 -160.90625 63.164062 C -159.996094 61.464844 -159.042969 59.785156 -158.050781 58.128906 C -157.058594 56.476562 -156.027344 54.84375 -154.957031 53.238281 C -153.882812 51.636719 -152.773438 50.058594 -151.625 48.507812 C -150.472656 46.957031 -149.285156 45.4375 -148.0625 43.945312 C -146.839844 42.453125 -145.578125 40.992188 -144.28125 39.5625 C -142.988281 38.132812 -141.65625 36.734375 -140.292969 35.371094 C -138.925781 34.007812 -137.53125 32.675781 -136.101562 31.378906 C -134.671875 30.085938 -133.210938 28.824219 -131.71875 27.601562 C -130.226562 26.375 -128.703125 25.1875 -127.15625 24.039062 C -125.605469 22.890625 -124.027344 21.777344 -122.421875 20.707031 C -120.820312 19.636719 -119.1875 18.601562 -117.535156 17.609375 C -115.878906 16.617188 -114.199219 15.667969 -112.496094 14.757812 C -110.796875 13.847656 -109.074219 12.980469 -107.328125 12.15625 C -105.582031 11.332031 -103.820312 10.550781 -102.035156 9.808594 C -100.253906 9.070312 -98.453125 8.378906 -96.636719 7.726562 C -94.820312 7.078125 -92.988281 6.472656 -91.140625 5.914062 C -89.292969 5.351562 -87.4375 4.835938 -85.5625 4.367188 C -83.691406 3.898438 -81.808594 3.476562 -79.917969 3.101562 C -78.023438 2.722656 -76.125 2.394531 -74.214844 2.109375 C -72.304688 1.828125 -70.390625 1.589844 -68.46875 1.402344 C -66.550781 1.214844 -64.625 1.070312 -62.699219 0.976562 C -60.769531 0.882812 -58.84375 0.835938 -56.914062 0.835938 C -54.984375 0.835938 -53.054688 0.882812 -51.125 0.976562 C -49.199219 1.070312 -47.273438 1.214844 -45.355469 1.402344 C -43.433594 1.589844 -41.519531 1.828125 -39.609375 2.109375 C -37.703125 2.394531 -35.800781 2.722656 -33.90625 3.101562 C -32.015625 3.476562 -30.132812 3.898438 -28.261719 4.367188 C -26.390625 4.835938 -24.53125 5.351562 -22.683594 5.914062 C -20.835938 6.472656 -19.003906 7.078125 -17.1875 7.726562 C -15.371094 8.378906 -13.570312 9.070312 -11.789062 9.808594 C -10.003906 10.550781 -8.242188 11.332031 -6.496094 12.15625 C -4.753906 12.980469 -3.027344 13.847656 -1.328125 14.757812 C 0.375 15.667969 2.054688 16.617188 3.707031 17.609375 C 5.363281 18.601562 6.992188 19.636719 8.597656 20.707031 C 10.203125 21.777344 11.78125 22.890625 13.332031 24.039062 C 14.878906 25.1875 16.402344 26.375 17.894531 27.601562 C 19.386719 28.824219 20.84375 30.085938 22.277344 31.378906 C 23.707031 32.675781 25.101562 34.007812 26.46875 35.371094 C 27.832031 36.734375 29.160156 38.132812 30.457031 39.5625 C 31.753906 40.992188 33.015625 42.453125 34.238281 43.945312 C 35.460938 45.4375 36.648438 46.957031 37.800781 48.507812 C 38.949219 50.058594 40.058594 51.636719 41.132812 53.238281 C 42.203125 54.84375 43.234375 56.476562 44.226562 58.128906 C 45.21875 59.785156 46.171875 61.464844 47.082031 63.164062 C 47.992188 64.867188 48.859375 66.589844 49.683594 68.335938 C 50.507812 70.078125 51.289062 71.84375 52.027344 73.625 C 52.765625 75.410156 53.460938 77.210938 54.109375 79.027344 C 54.761719 80.84375 55.367188 82.675781 55.925781 84.523438 C 56.488281 86.367188 57 88.226562 57.46875 90.101562 C 57.9375 91.972656 58.363281 93.855469 58.738281 95.746094 C 59.113281 97.640625 59.445312 99.539062 59.726562 101.449219 C 60.011719 103.359375 60.246094 105.273438 60.4375 107.191406 C 60.625 109.113281 60.765625 111.039062 60.863281 112.964844 C 60.957031 114.894531 61.003906 116.820312 61.003906 118.75 Z M 61.003906 118.75 " fill-opacity="1" fill-rule="nonzero"/></g></svg>