<svg xmlns="http://www.w3.org/2000/svg" xmlns:xlink="http://www.w3.org/1999/xlink" width="83" zoomAndPan="magnify" viewBox="0 0 62.25 30.000001" height="40" preserveAspectRatio="xMidYMid meet" version="1.0"><defs><clipPath id="9060f2d391"><path d="M 0.640625 10 L 60.882812 10 L 60.882812 19 L 0.640625 19 Z M 0.640625 10 " clip-rule="nonzero"/></clipPath></defs><g clip-path="url(#9060f2d391)"><path fill="#bb1125" d="M 57.121094 16.9375 C 56.09375 16.28125 54.457031 15.546875 53.222656 14.382812 C 51.175781 12.457031 49.171875 12.554688 47.734375 14.972656 C 45.480469 18.761719 41.433594 19.097656 38.433594 15.746094 C 35.710938 12.703125 34.753906 12.703125 32.058594 15.734375 C 28.84375 19.347656 25.628906 19.464844 22.269531 15.875 C 20.464844 13.941406 18.910156 14.234375 17.179688 15.800781 C 13.535156 19.101562 11.417969 19.117188 7.941406 15.898438 C 6.1875 14.277344 5.054688 14.492188 2.964844 16.632812 C 2.429688 17.179688 1.589844 17.429688 0.890625 17.816406 C 0.9375 16.855469 0.640625 15.675781 1.089844 14.972656 C 3.261719 11.546875 7.007812 11.179688 9.878906 14.089844 C 11.546875 15.78125 12.75 15.941406 14.539062 14.097656 C 17.863281 10.667969 21.304688 10.859375 24.511719 14.28125 C 26.398438 16.296875 27.277344 16.351562 29.082031 14.164062 C 30.636719 12.28125 32.226562 10.78125 34.894531 10.8125 C 37.121094 10.835938 38.84375 11.417969 40.207031 13.34375 C 42.167969 16.113281 43.449219 16 45.160156 13.214844 C 47.214844 9.863281 52.507812 9.566406 55.191406 12.46875 C 55.839844 13.171875 57.542969 13.800781 58.152344 13.4375 C 59.390625 12.699219 60.359375 12.636719 60.691406 13.867188 C 60.882812 14.566406 59.992188 15.660156 59.394531 16.425781 C 59.140625 16.746094 58.386719 16.675781 57.121094 16.9375 Z M 57.121094 16.9375 " fill-opacity="1" fill-rule="nonzero"/></g></svg>